<svg xmlns="http://www.w3.org/2000/svg" enable-background="new 0 0 500 500" viewBox="0 0 500 500"><path fill="#333" d="M166.928 202h165.872c7.976 0 14.502-6.359 14.502-14.335l12.085-135.113c0-7.976-6.526-14.552-14.502-14.552H154.843c-7.976 0-14.502 6.659-14.502 14.635l12.085 134.963C152.426 195.574 158.952 202 166.928 202zM344.886 215H154.843c-13.775 0-26.587 28-26.587 28h243.217C371.473 243 361.838 215 344.886 215zM128.404 256c0 68 54.446 121.609 121.609 121.609S371.622 324 371.622 256H128.404zM323.623 458.658C311.087 443.279 292 424.045 292 404.204v-22.09c-13 4.854-27.021 7.505-41.896 7.505-15.331 0-30.104-2.818-43.104-7.961v22.565c0 19.83-19.17 39.054-31.694 54.429l-4.089 4.592c-3.273 4.018-.537 9.757 4.644 9.757h147.112c5.183 0 7.964-5.741 4.689-9.759L323.623 458.658z"/></svg>