<svg xmlns="http://www.w3.org/2000/svg" enable-background="new 0 0 500 500" viewBox="0 0 500 500"><path fill="#333" d="M91.992 386H58.008c-2.213 0-4.008 1.794-4.008 4.008v18.985c0 2.213 1.794 4.008 4.008 4.008h33.984c2.213 0 4.008-1.794 4.008-4.008v-18.985C96 387.794 94.206 386 91.992 386zM438.992 386h-33.984c-2.213 0-4.008 1.794-4.008 4.008v18.985c0 2.213 1.794 4.008 4.008 4.008h33.984c2.213 0 4.008-1.794 4.008-4.008v-18.985C443 387.794 441.206 386 438.992 386zM173.171 194.312c0 0-7.723-18.755-1.505-40.966l-3.638-3.506c-2.996-2.86-3.106-7.624-.246-10.62 2.86-2.997 7.608-3.114 10.603-.254l4.338 4.137c5.841-1.043 28.146-4.032 63.313 3.141 0 0 25.875-6.405 69.021-3.262l4.214-4.023c2.995-2.859 7.743-2.751 10.604.246 2.86 2.996 2.75 7.743-.246 10.603l-2.296 2.192c.19 7.64-.175 24.391-5.377 43.953 0 0 6.938 19.05 9.206 36.05H433v-99.727c0 0-19.874-90.104-184.472-90.104C83.918 42.168 64 132.273 64 132.273V232h102.522C166.505 223 167.239 205.813 173.171 194.312zM469.751 297.443c0-19.447-13.91-43.443-33.042-43.443H60.975c-19.144 0-33.042 23.996-33.042 43.443L27.824 321H469.86L469.751 297.443z"/><rect width="442" height="24" x="28" y="342" fill="#333"/></svg>