<svg xmlns="http://www.w3.org/2000/svg" enable-background="new 0 0 512 512" viewBox="0 0 512 512"><path fill="#333" d="M466,253.058c0-11.63-9.427-21.058-21.056-21.058H67.056C55.427,232,46,241.428,46,253.058v232.885
		C46,497.572,55.427,507,67.056,507h377.889c11.629,0,21.056-9.428,21.056-21.058V253.058z"/><path fill="#333" d="M446.857 171.325c1.098 0 3.143-.422 3.143 3.502v57.382c0-.032-1.919-.209-2.815-.209H68.165c-1.857 0-4.165.265-7.165.429v-57.602c0-2.348 4.594-3.827 7.165-3.827H446M447.185 155H68.165C56.533 155 46 163.198 46 174.827v83.214c0 0 6.021-9.041 22.165-9.041h379.02c17.195 0 17.815 3.777 17.815 3.777v-77.95c0-11.629-6.541-19.827-18.172-19.827H447.185zM69.877 22.964c0 0-11.673-18.682 0-16.929 11.678 1.75 19.269 8.405 19.269 8.405s32.122-11.442 63.647 0c0 0 32.676-9.573 66.534-4.902 0 0 20.432-12.96 15.764 4.902 0 0 2.917 28.372-7.006 55.227 0 0 9.338 14.594 7.698 42.032 0 0 11.565 19.265 3.393 17.513-8.175-1.751-18.681-8.757-18.681-8.757s-43.735 9.925-67.703 0c0 0-42.633 15.179-71.238 5.254 0 0-12.845 8.173-14.595 1.751s1.75-13.428 1.75-13.428-7.004-32.692 5.841-44.366C74.551 69.667 65.077 38.856 69.877 22.964zM278.438 22.964c0 0-11.677-18.682 0-16.929 11.673 1.75 19.264 8.405 19.264 8.405s32.126-11.442 63.648 0c0 0 32.679-9.573 66.536-4.902 0 0 20.432-12.96 15.762 4.902 0 0 2.92 28.372-7.005 55.227 0 0 9.341 14.594 7.699 42.032 0 0 11.566 19.265 3.392 17.513-8.172-1.751-18.682-8.757-18.682-8.757s-43.731 9.925-67.702 0c0 0-42.632 15.179-71.239 5.254 0 0-12.843 8.173-14.593 1.751-1.751-6.422 1.75-13.428 1.75-13.428s-7.004-32.692 5.84-44.366C283.108 69.667 273.633 38.856 278.438 22.964z"/></svg>