<svg xmlns="http://www.w3.org/2000/svg" enable-background="new 0 0 512 512" viewBox="0 0 512 512"><path fill="#333" d="M78.113,305h357.039c5.698,0,9.849-4.437,9.849-9.672V244.06c0-5.221-4.15-10.06-9.849-10.06H78.113
		C72.414,234,67,238.839,67,244.06v51.268C67,300.563,72.414,305,78.113,305z"/><path fill="#333" d="M492.566,207h-16.343c-6.942,0-13.224,4.883-13.224,10.71V321H48V149.595
		c0-5.829-5.03-9.595-11.972-9.595H19.687C12.745,140,7,143.766,7,149.595v241.891C7,397.312,12.745,402,19.687,402h16.341
		C42.97,402,48,397.312,48,391.485V356h415v35.485c0,5.827,6.281,10.515,13.224,10.515h16.343c6.94,0,11.434-4.688,11.434-10.515
		v-40.22v-25.424V217.71C504,211.883,499.507,207,492.566,207z"/><path fill="#333" d="M86.371,182.923c10.275,57.156,107.244,33.395,113.667,31.469c6.423-1.926-8.349-7.064-8.349-7.064
		c-10.917-25.046-61.006-39.174-61.006-39.174c-3.853-26.329-35.962-46.236-35.962-46.236s0-4.497-7.707-10.276
		c-7.707-5.779-6.421,10.917-6.421,10.917C64.877,152.672,86.371,182.923,86.371,182.923z"/></svg>