<svg xmlns="http://www.w3.org/2000/svg" enable-background="new 0 0 500 500" viewBox="0 0 500 500"><path fill="#333" fill-rule="evenodd" d="M130 328h165c6.075 0 11-4.925 11-11s-4.925-11-11-11H130c-6.075 0-11 4.925-11 11S123.925 328 130 328zM128 376h165c6.075 0 11-4.925 11-11s-4.925-11-11-11H128c-6.075 0-11 4.925-11 11S121.925 376 128 376zM204 402h-76c-6.075 0-11 4.925-11 11s4.925 11 11 11h76c6.075 0 11-4.925 11-11S210.075 402 204 402zM197.28 235.995c-1.959-1.866-2.892-3.928-3.851-6.178-.965-2.249-1.836-5.49-3.138-9.736-.583-1.961-1.484-3.488-2.987-4.576-1.494-1.09-3.261-1.629-5.437-1.629-2.708 0-4.924 1.002-6.743 2.98-1.813 2.004-2.7 4.228-2.7 6.719 0 3.361.684 6.784 2.039 10.281 1.35 3.491 3.443 6.848 6.267 10.088 2.833 3.229 5.296 5.93 9.521 8.099 4.227 2.186 7.75 3.603 13.75 4.273v11.324c0 2.375 1.418 4.119 2.12 5.265.698 1.138 2.455 1.714 4.187 1.714 1.888 0 3.206-.705 3.759-2.097.557-1.401.934-3.621.934-6.675v-9.682c7-.631 13.04-2.557 18.067-5.827 5.026-3.259 8.918-7.45 11.502-12.6 2.582-5.144 3.911-10.679 3.911-16.577 0-4.702-.76-9.03-2.376-12.989-1.619-3.955-3.927-7.359-6.929-10.203-2.794-2.742-6.139-4.834-9.695-6.29-3.553-1.44-9.479-3.054-14.479-4.809v-32.28c5 2.134 10.102 6.427 11.692 12.88 1.398 5.495 4.55 8.233 9.285 8.233 2.513 0 4.692-.949 6.459-2.838 1.763-1.885 2.667-4.12 2.667-6.711 0-2.328-.584-4.875-1.764-7.688-1.192-2.787-2.861-5.495-5.04-8.138-2.751-3.467-6.142-6.053-9.838-7.759-3.691-1.695-10.462-2.838-13.462-3.404v-8.38c0-4.247-2.444-6.375-5.536-6.375-3.039 0-5.464 2.184-5.464 6.522v8.233c-10 .932-16.576 4.231-21.868 9.925-5.287 5.684-7.4 12.985-7.4 21.887 0 6.824 1.62 12.408 4.324 16.747 2.704 4.348 5.299 7.701 9.648 10.055 4.349 2.348 9.296 4.484 15.296 6.39v36.088C202 239.278 199.235 237.849 197.28 235.995zM215 207.05c3 1.707 8.999 3.793 11.582 6.244 2.584 2.458 3.877 5.936 3.877 10.428 0 4.196-1.328 7.877-3.984 11.021C223.815 237.899 218 240 215 241.027V207.05zM195.361 178.297c-2.127-2.099-2.653-5.175-2.653-9.269 0-4.291.333-7.508 2.604-9.624 2.263-2.111 6.688-3.823 8.688-5.11v29.716C200 182.293 197.485 180.39 195.361 178.297z" clip-rule="evenodd"/><path fill="#333" fill-rule="evenodd" d="M375.5,17h-204C148.065,17,129,36.065,129,59.5V77h-20.5
		C85.065,77,66,96.065,66,119.5v322c0,23.435,19.065,42.5,42.5,42.5H284c0.764,0,1.508-0.079,2.233-0.21
		c0.747,0.137,1.503,0.21,2.26,0.21c3.199,0,6.398-1.22,8.839-3.661l54.859-54.859c0.465-0.465,0.871-0.965,1.248-1.479H375.5
		c23.435,0,42.5-19.065,42.5-42.5v-322C418,36.065,398.935,17,375.5,17z M91,441.5v-322c0-9.649,7.851-17.5,17.5-17.5h204
		c9.649,0,17.5,7.851,17.5,17.5V400h-23.5c-23.538,0-34.5,10.962-34.5,34.5V459H108.5C98.851,459,91,451.149,91,441.5z M393,381.5
		c0,9.649-7.851,17.5-17.5,17.5H355V119.5c0-23.435-19.065-42.5-42.5-42.5H154V59.5c0-9.649,7.851-17.5,17.5-17.5h204
		c9.649,0,17.5,7.851,17.5,17.5V381.5z" clip-rule="evenodd"/></svg>