<svg xmlns="http://www.w3.org/2000/svg" enable-background="new 0 0 500 500" viewBox="0 0 500 500"><path fill="#333" d="M414.001 352.514c-7.716-5.678-72.306-13.403-93.445-18.49l-33.385 127.172-28.1-72.185 9.951-12.117c4.692-4.692 4.693-12.299 0-16.993l-11.044-13.447c-4.692-4.692-12.299-4.691-16.992 0L229.942 359.9c-4.691 4.693-4.692 12.301 0 16.993l9.963 12.129-28 72.173-33.813-129.147c-21.3 4.983-94.46 14.479-101.374 20.863-9.75 8.998-41.383 95.701-41.383 95.701s75.704 47.143 212.073 47.143 216.429-46.565 216.429-46.565S426.509 361.719 414.001 352.514zM138.917 154.66c0 0 7.998 14.852 12.275 7.384 4.282-7.468-7.199-74.801 8.631-81.337 8.971-3.703 14.795-.25 30.39 3.437-2.689-6.694-4.551-14.826-4.756-24.63-.062-2.985 2.309-5.456 5.293-5.517 3.035-.045 5.456 2.309 5.518 5.294.249 12.056 3.414 21.001 7.305 27.494 6.063.973 13.188 1.826 21.687 2.395-6.181-9.842-12.543-26.609-8.067-50.904.563-3.058 3.495-5.082 6.561-4.519 3.059.564 5.081 3.5 4.518 6.561-5.38 29.192 7.528 45.106 11.807 49.501 2.495.056 5.923.092 7.923.1 0 .002 0 .004 0 .005 0 0 .296-.001.5-.002.204.001.5.002.5.002 0-.001 0-.003 0-.005 3-.011 7.608-.079 11.142-.192 4.429-4.554 16.878-20.346 11.522-49.409-.564-3.06 1.443-5.997 4.503-6.561 3.062-.563 5.988 1.46 6.553 4.519 4.439 24.089-1.782 40.772-7.914 50.647 9.391-.746 17.016-1.839 23.338-3.028 3.549-6.413 6.324-15.159 6.435-26.61.03-2.968 2.443-5.285 5.405-5.285.018 0 .035 0 .054 0 2.986 0 5.384 2.405 5.354 5.391-.089 9.212-1.669 16.998-4.027 23.469 12.053-3.144 17.575-5.463 25.53-2.179 15.833 6.536 4.488 73.881 8.767 81.35 4.28 7.468 12.283-7.377 12.283-7.377-1.108-45.575 9.496-70.896-12.754-113.84C327.356 6.395 258 3.937 249 3.76c0-.003 0-.015 0-.015s-.108 0-.5.005c-.393-.005-.5-.005-.5-.005s0 .011 0 .015c-10 .177-78.425 2.646-96.258 37.061C129.493 83.764 140.023 109.085 138.917 154.66z"/><path fill="#333" d="M333.176,107.252c-0.489-10.133-1.882-14.375-2.548-15.887c-0.737-0.196-1.373-0.231-1.873-0.231
		c-2.282,0-6.159,0.912-10.839,2.175C307.398,96.146,291,100.688,259,101.722v0.27l-11.494-0.053l-0.149-0.002l-0.843,0.002
		L234,101.987v-0.265c-29-1.037-47.058-5.598-57.443-8.448c-4.525-1.243-7.38-2.14-9.563-2.14c-0.471,0-0.943,0.035-1.649,0.22
		c-0.655,1.532-1.932,5.774-2.342,15.811c-0.382,9.361,0.133,20.215,0.574,29.792c0.371,8.068,0.612,13.926,0.525,18.415
		c8.05-5.083,26.396-10.757,55.042-6.076c10.928,1.786,19.534,7.704,22.767,14.704h13.801c3.233-7,11.839-12.918,22.767-14.704
		c27.446-4.485,45.435,0.507,53.976,5.362c-0.084-4.43,0.106-10.077,0.394-17.461C333.222,127.588,333.627,116.649,333.176,107.252z
		"/><path fill="#333" d="M127.815,215.825c1.326,16.417,5.902,43.722,21.248,65.67c18.028,25.781,55.583,32.338,78.76,33.816
		c2.09,3.392,5.827,5.688,10.101,5.688h19.512c6.556,0,11.563-5.377,11.563-11.933v-0.288c0-6.555-5.008-11.779-11.563-11.779
		h-19.512c-4.521,0-8.452,2.483-10.456,6.203c-21.047-1.497-53.731-7.367-68.559-28.57c-12.631-18.066-17.138-40.955-18.733-56.203
		c0.162,0.002,0.323,0.007,0.484,0.007c1.604,0,3.177-0.123,4.717-0.344c3.889,17.256,10.067,33.143,18.035,47.033
		c7.766,8.48,18.559,14.875,30.95,18.893c9.918,3.216,20.268,5.283,28.511,6.136c4.052-3.495,9.371-5.154,15.051-5.154h19.512
		c12.59,0,20.563,8.786,20.563,21.376v0.289c2,3.43,0.688,6.38,0.279,8.93c34.475-13.83,61.977-50.526,72.576-97.194
		c17.607-0.628,31.802-15.091,31.802-32.849c0-10.995-5.316-20.721-13.606-26.687c0,0-2.533,4.741-4.826,7.779
		c-1.778,2.354-7.184,9.515-15.801,9.515c-2.663,0-5.167-0.697-7.387-1.993c-0.625,9.707-9.357,20.859-30.844,25.658
		c-25.529,5.702-48.9-2.103-51.585-12.659L255.775,176h-13.927l-2.834,11.19c-2.686,10.557-26.057,18.343-51.587,12.642
		c-22.027-4.921-30.646-16.455-30.871-26.312c-2.452,1.703-5.321,2.63-8.395,2.63c-2.122,0-8.577,0.004-15.829-9.43
		c-3.471-4.516-2.888-4.378-5.609-10.953c-11.188,5.246-18.942,16.606-18.942,29.782
		C107.782,199.151,116.04,210.822,127.815,215.825z"/></svg>