<svg xmlns="http://www.w3.org/2000/svg" enable-background="new 0 0 500 500" viewBox="0 0 500 500"><path fill="#333" d="M255.854,49.096L16.971,252.445l24.866,24.862L77,249.038v173.737C77,434.362,86.396,444,97.987,444
		h315.634c11.593,0,21.379-9.638,21.379-21.225V248.958l34.968,28.271l24.76-24.866L255.854,49.096z M400,408H111V217.878
		L255.55,98.822L400,219.09V408z"/><path fill="#333" d="M332.866,289H181.328l13.651-13.775c4.958-4.958,4.958-13.059,0-18.017
		c-4.959-4.958-12.996-4.99-17.955-0.031l-44.16,44.144l44.44,44.432c4.958,4.958,12.996,4.954,17.954-0.004
		c4.958-4.958,4.958-13.07,0-18.028L181.611,314h151.537l-13.651,13.721c-4.958,4.958-4.958,13.032,0,17.99
		c4.959,4.959,12.996,4.976,17.954,0.018l44.16-44.15l-44.44-44.431c-4.958-4.958-12.996-4.958-17.954,0
		c-4.958,4.958-4.958,13.122,0,18.08L332.866,289z"/></svg>