<svg xmlns="http://www.w3.org/2000/svg" enable-background="new 0 0 500 500" viewBox="0 0 500 500"><path fill="#333" d="M401.714 119.274l-19.703 23.699c22.228 30.818 34.232 67.711 34.232 106.454 0 48.743-18.982 94.568-53.448 129.035-34.466 34.467-80.292 53.448-129.035 53.448-37.697 0-73.645-11.362-103.947-32.452l-29.754 15.105c36.515 29.601 83.032 47.346 133.701 47.346 117.351 0 212.483-95.132 212.483-212.483C446.244 200.387 429.621 155.233 401.714 119.274zM51.278 249.428c0-48.743 18.981-94.569 53.448-129.035 34.466-34.466 80.292-53.448 129.035-53.448 32.253 0 63.224 8.318 90.477 23.926l28.676-17.394c-33.982-23.057-74.993-36.532-119.153-36.532-117.351 0-212.483 95.132-212.483 212.483 0 42.661 12.582 82.379 34.224 115.665l21.817-21.587C60.346 315.395 51.278 283.109 51.278 249.428z"/><path fill="#333" d="M326.302,259.1l-49.7-28.445l109.34-131.516c5.218-6.277-2.334-15.041-9.313-10.808l-236.086,143.2
		c-4.437,2.691-4.68,9.041-0.461,12.064l42.783,30.65L69.926,385.99c-5.866,5.804,1.003,15.327,8.362,11.591l247.696-125.754
		C331.115,269.222,331.297,261.959,326.302,259.1z"/></svg>