<svg xmlns="http://www.w3.org/2000/svg" enable-background="new 0 0 500 500" viewBox="0 0 500 500"><path fill="#333" d="M330.049,327.686c7.547-13.25,11.925-28.544,11.966-44.866c0.052-19.883-6.279-38.318-17.054-53.372
		c-0.552-2.033-1.616-3.955-3.213-5.551c-0.912-0.913-1.931-1.654-3.016-2.226c-16.729-18.719-41.023-30.548-68.042-30.613
		c-50.476-0.122-91.656,40.841-91.779,91.325c-0.133,50.467,40.849,91.654,91.331,91.769c18.878,0.055,36.447-5.675,51.06-15.461
		l81.437,79.374c4.107,4.139,9.524,6.216,14.933,6.223c5.401,0.009,10.813-2.033,14.949-6.153
		c8.278-8.234,8.303-21.596,0.069-29.889L330.049,327.686z M250.306,345.989c-34.951-0.084-63.299-28.594-63.213-63.545
		c0.077-34.95,28.577-63.299,63.525-63.213c16.123,0.043,30.833,6.138,42.006,16.112l-47.676,47.676l-9.514-9.514
		c-4.881-4.882-12.797-4.882-17.678,0c-4.882,4.882-4.882,12.796,0,17.678l18.353,18.353c2.44,2.441,5.64,3.661,8.839,3.661
		c3.199,0,6.398-1.22,8.839-3.661l53.983-53.983c3.914,8.253,6.101,17.476,6.081,27.203
		C313.762,317.707,285.263,346.084,250.306,345.989z"/><path fill="#333" d="M250.054,49.552L11.171,252.9l24.766,24.862L71,249.493V423.23C71,434.817,80.596,444,92.187,444h261.044
		l-36.443-35H105V218.333L250.051,99.277L395,219.545v136.13l34,33.368v-139.63l35.068,28.271l24.81-24.866L250.054,49.552z"/></svg>