<svg xmlns="http://www.w3.org/2000/svg" enable-background="new 0 0 500 500" viewBox="0 0 500 500"><path fill="#333" d="M88 260.142C88 252.332 81.668 246 73.858 246H28.142C20.332 246 14 252.332 14 260.142v124.715C14 392.668 20.332 399 28.142 399h45.715C81.668 399 88 392.668 88 384.858V260.142zM482 260.142c0-7.811-6.332-14.142-14.142-14.142h-45.715c-7.811 0-14.142 6.332-14.142 14.142v124.715c0 7.811 6.332 14.142 14.142 14.142h45.715c7.811 0 14.142-6.332 14.142-14.142V260.142zM393.321 304H102.304c-.545 0-1.304-.823-1.304-.766v69.099c0 .057.759-.333 1.304-.333h291.016c1.038 0 2.679.313 2.679.111v-68.656C396 303.254 394.359 304 393.321 304z"/><path fill="#333" d="M241 292V175.171c0-7.826-6.344-14.171-14.171-14.171H84.919C66.738 161 52 175.738 52 193.919V234h22.02c14.289 0 25.98 11.691 25.98 25.98v31.481c1-.07 1.509.539 2.304.539H241zM444 234v-38.861C444 176.363 428.637 161 409.861 161h-141.69c-7.826 0-14.171 6.344-14.171 14.171V292h139.32c.87 0 1.68-.606 2.68-.522v-31.395C396 245.737 407.737 234 422.083 234H444z"/></svg>