<svg xmlns="http://www.w3.org/2000/svg" enable-background="new 0 0 500 500" viewBox="0 0 500 500"><path fill="#333" d="M457.91,47.09L196.595,201.595L42.089,462.91l261.315-154.506L457.91,47.09z M216.87,221.87
		l172.642-106.381L249.603,254.603L216.87,221.87z"/><path fill="#333" d="M431.745 140.464l-17.739 30.001c11.964 24.543 18.294 51.673 18.294 79.78 0 48.694-18.963 94.474-53.395 128.906S298.694 432.545 250 432.545c-27.419 0-53.914-6.013-77.98-17.415l-30.158 17.831c31.673 18.786 68.642 29.584 108.138 29.584 117.25 0 212.3-95.05 212.3-212.3C462.3 210.066 451.136 172.497 431.745 140.464zM88.588 335.147C74.943 309.282 67.7 280.321 67.7 250.245c0-48.694 18.963-94.474 53.395-128.906S201.306 67.945 250 67.945c30.748 0 60.329 7.569 86.63 21.811l29.342-17.349C332.632 50.621 292.799 37.945 250 37.945c-117.25 0-212.3 95.05-212.3 212.3 0 42.132 12.273 81.397 33.438 114.415L88.588 335.147z"/></svg>