<svg xmlns="http://www.w3.org/2000/svg" enable-background="new 0 0 500 500" viewBox="0 0 500 500"><path fill="#474747" d="M251 75.548c-112.772 0-204.52 91.747-204.52 204.52 0 112.773 91.748 204.521 204.52 204.521s204.52-91.747 204.52-204.521C455.52 167.295 363.772 75.548 251 75.548zM251 429.588c-82.446 0-149.52-67.074-149.52-149.521 0-82.445 67.074-149.52 149.52-149.52s149.52 67.074 149.52 149.52C400.52 362.514 333.446 429.588 251 429.588zM308 18.511C308 12.706 303.294 8 297.489 8h-90.979C200.706 8 196 12.706 196 18.511v28.979C196 53.294 200.706 58 206.511 58h90.979C303.294 58 308 53.294 308 47.489V18.511zM382.795 94.247l26.13 20.372c6.521 5.084 16.016 3.908 21.1-2.613l7.367-9.449c5.084-6.521 3.908-16.016-2.613-21.1l-26.13-20.372c-6.521-5.084-16.016-3.908-21.1 2.613l-7.367 9.449C375.098 79.668 376.274 89.163 382.795 94.247zM71.427 112.006c5.084 6.521 14.579 7.697 21.1 2.613l26.13-20.372c6.521-5.084 7.697-14.579 2.613-21.1l-7.367-9.449c-5.084-6.521-14.579-7.697-21.1-2.613l-26.13 20.372c-6.521 5.084-7.697 14.579-2.613 21.1L71.427 112.006z"/><path fill="#474747" d="M335.667,192.145l-81.325,70.814c-1.083-0.21-2.198-0.328-3.342-0.328c-9.63,0-17.437,7.807-17.437,17.437
		s7.807,17.437,17.437,17.437s17.437-7.807,17.437-17.437c0-0.909-0.091-1.794-0.225-2.666l80.589-70.173
		c4.165-3.627,4.602-9.943,0.975-14.109C346.149,188.955,339.833,188.519,335.667,192.145z"/></svg>