<svg xmlns="http://www.w3.org/2000/svg" enable-background="new 0 0 500 500" viewBox="0 0 500 500"><polygon fill="#333" points="12.01 349.494 150.505 487.989 187.916 450.579 87.625 350.29 97.177 340.738 197.467 441.027 230.101 408.394 175.977 354.27 185.527 344.718 239.652 398.843 273.082 365.413 218.958 311.288 228.509 301.736 282.634 355.861 315.268 323.228 214.978 222.937 224.53 213.386 324.819 313.676 356.657 281.838 302.532 227.713 312.084 218.162 366.209 272.286 399.639 238.856 345.514 184.732 355.065 175.181 409.19 229.305 440.231 198.263 339.941 97.973 349.494 88.421 449.784 188.711 487.989 150.505 349.494 12.01"/></svg>