<svg xmlns="http://www.w3.org/2000/svg" enable-background="new 0 0 378.214 352.965" viewBox="0 0 378.214 352.965"><path fill="#333" d="M86.544,352.965c-16.889,0.001-37.734-5.948-58.724-26.938
		c-25.544-25.544-29.059-53.068-27.51-71.66c1.966-23.595,12.588-41.892,21.087-50.391L204.966,20.407
		c4.479-4.479,11.742-4.48,16.221,0c4.479,4.479,4.479,11.742,0,16.222L37.619,220.197c-6.011,6.011-13.097,19.864-14.448,36.073
		c-1.146,13.756,1.544,34.209,20.871,53.535c16.703,16.702,34.646,23.11,53.329,19.037c18.052-3.933,30.664-16.137,32.042-17.516
		L344.699,96.041c0.339-0.364,11.16-12.089,10.549-27.823c-0.45-11.562-6.948-23.042-19.316-34.118
		c-12.861-11.52-26.609-14.065-42.019-7.786c-12.146,4.949-20.584,13.611-20.666,13.697c-0.067,0.071-0.136,0.141-0.205,0.21
		L91.123,222.142c-0.889,1.298-3.708,5.743-4.86,11.469c-1.643,8.175,0.812,15.402,7.508,22.098
		c6.501,6.502,13.019,8.834,19.925,7.128c5.371-1.326,9.318-4.609,9.938-5.146l115.164-115.164c4.479-4.479,11.742-4.479,16.221,0
		c4.479,4.479,4.479,11.742,0,16.222L139.652,274.113c-0.068,0.068-0.136,0.135-0.206,0.2c-0.785,0.747-7.981,7.38-18.946,10.45
		c-15.173,4.247-30.427-0.311-42.951-12.835c-24.275-24.274-13.348-52.716-4.179-64.363c0.28-0.356,0.582-0.695,0.902-1.016
		L256.757,24.063c1.421-1.461,12.438-12.449,28.5-18.994c16.506-6.726,41.353-10.114,65.979,11.941
		c17.303,15.496,26.369,32.558,26.948,50.709c0.824,25.828-16.396,43.66-17.13,44.407c-0.023,0.024-0.047,0.048-0.071,0.072
		l-215.349,215.35c-3.043,3.043-19.441,18.493-43.38,23.709C97.577,352.276,92.288,352.965,86.544,352.965z"/></svg>