<svg xmlns="http://www.w3.org/2000/svg" enable-background="new 0 0 500 500" viewBox="0 0 500 500"><path fill="#333" d="M360.211,151c-12.802-23-21.196-40.432-47.584-46.563L289.682,78h-43.597l-22.946,26.447
		C196.752,110.588,188.398,128,175.603,151h-24.452C83.8,151,42,190.203,42,268.642V279h92v-10.358
		c0-14.24,11.925-25.642,26.165-25.642h24.373c16.201,29,47.456,49.269,83.369,49.269S335.075,272,351.276,243H441v-92H360.211z"/><rect width="105" height="30" x="215" y="28" fill="#333"/><path fill="#333" d="M154.807 58H198V28h-43.193C147.235 28 143 32.796 143 38.476v8.715C143 52.87 147.235 58 154.807 58zM392 47.191v-8.715C392 32.796 388.065 28 380.493 28H336v30h44.493C388.065 58 392 52.87 392 47.191z"/><rect width="110" height="30" x="33" y="299" fill="#333"/><path fill="#333" d="M47.621,440.706c0,22.853,18.526,41.378,41.378,41.378s41.378-18.526,41.378-41.378
		c0-22.853-41.378-92.509-41.378-92.509S47.621,417.853,47.621,440.706z"/></svg>