<svg xmlns="http://www.w3.org/2000/svg" enable-background="new 0 0 512 512" viewBox="0 0 512 512"><path fill="#333" d="M166.663 310.699c-2.423 0-4 1.964-4 4.386v124.814c0 12.054-5.779 17.669-17.75 17.669-3.529 0-6.52-1.104-8.459-3.19-1.716-1.845-2.711-4.377-2.711-7.132 0-5.244 3.38-10.537 10.991-10.537 2.422 0 4.375-1.963 4.375-4.387 0-2.423-1.972-4.386-4.394-4.386-7.577 0-12.212 3.311-14.765 6.088-3.242 3.527-5.028 8.224-5.028 13.222 0 9.488 6.796 19.094 19.788 19.094 13.156 0 19.301-5.785 22.293-10.639 2.585-4.193 3.66-9.361 3.66-15.802V315.085C170.663 312.663 169.086 310.699 166.663 310.699zM229.663 294.749c-2.423 0-4 1.964-4 4.386v156.714c0 12.055-5.778 17.669-17.747 17.669-8.131 0-11.118-5.561-11.118-10.322 0-2.753.938-5.409 2.663-7.285 1.955-2.128 4.8-3.251 8.278-3.251 2.422 0 4.374-1.964 4.374-4.388 0-2.422-1.97-4.386-4.393-4.386-12.992 0-19.792 9.713-19.792 19.31 0 9.489 6.796 19.095 19.788 19.095 13.154 0 19.298-5.786 22.289-10.638 2.585-4.194 3.659-9.364 3.659-15.804V299.135C233.663 296.713 232.085 294.749 229.663 294.749zM131.663 387.262v-48.251c0-2.422-2.078-4.386-4.5-4.386-2.422 0-4.5 1.964-4.5 4.386v48.251c0 12.054-5.518 17.669-17.489 17.669-8.131 0-10.987-5.561-10.987-10.322 0-2.753 1.003-5.408 2.727-7.285 1.955-2.127 4.833-3.252 8.31-3.252 2.423 0 4.39-1.964 4.39-4.387 0-2.422-1.963-4.386-4.384-4.386-7.577 0-12.21 3.312-14.762 6.089-3.242 3.527-5.027 8.222-5.027 13.221 0 9.488 6.797 19.094 19.79 19.094 13.154 0 19.54-5.784 22.532-10.637C130.349 398.87 131.663 393.7 131.663 387.262zM369.611 427.936c-2.423 0-4.386 1.963-4.386 4.386 0 2.424 1.963 4.387 4.386 4.387 7.609 0 11.017 5.293 11.017 10.537 0 4.762-3.087 10.322-11.218 10.322-11.971 0-17.746-5.615-17.746-17.669V315.085c0-2.422-1.578-4.386-4-4.386-2.423 0-4 1.964-4 4.386v124.814c0 6.44 1.07 11.608 3.656 15.802 2.992 4.854 9.228 10.639 22.383 10.639 7.618 0 12.198-3.257 14.738-5.989 3.228-3.474 4.983-8.128 4.983-13.104C389.423 437.649 382.603 427.936 369.611 427.936zM305.411 443.886c-2.424 0-4.388 1.964-4.388 4.386 0 2.424 1.964 4.388 4.388 4.388 7.609 0 11.015 5.291 11.015 10.536 0 2.754-.943 5.288-2.659 7.132-1.938 2.087-4.93 3.19-8.457 3.19-11.971 0-17.646-5.614-17.646-17.669V299.135c0-2.422-1.578-4.386-4-4.386-2.424 0-4 1.964-4 4.386v156.714c0 6.439.972 11.609 3.558 15.804 2.991 4.852 9.177 10.638 22.332 10.638 7.617 0 12.173-3.258 14.712-5.99 3.228-3.473 4.971-8.127 4.971-13.104C325.236 453.599 318.402 443.886 305.411 443.886zM409.089 375.299c-2.424 0-4.388 1.964-4.388 4.386 0 2.423 1.964 4.387 4.388 4.387 7.609 0 11.015 5.293 11.015 10.537 0 2.755-.943 5.288-2.659 7.133-1.939 2.086-4.767 3.189-8.296 3.189-11.97 0-17.485-5.615-17.485-17.669v-48.251c0-2.422-2.077-4.386-4.5-4.386-2.423 0-4.5 1.964-4.5 4.386v48.251c0 6.438 1.31 11.608 3.895 15.804 2.991 4.853 9.347 10.637 22.503 10.637 7.617 0 12.257-3.257 14.795-5.989 3.229-3.473 5.014-8.127 5.014-13.104C428.87 385.014 422.079 375.299 409.089 375.299zM157.576 221.448h199.359c-.362-22.295-1.118-91.121.163-122.868 1.104-27.341 11.142-47.988 18.065-59.132H139.349c6.923 11.144 16.961 31.791 18.065 59.132C158.695 130.327 157.939 199.153 157.576 221.448z"/><path fill="#333" d="M387.192 49.487c-5.311 7.402-18.874 19.135-20.101 49.497-1.275 31.587-.514 89.382-.154 111.464h48.727v-131C415.663 63.393 403.05 50.283 387.192 49.487zM147.421 98.984c-1.231-30.499-14.78-42.136-20.092-49.503-15.949.699-28.665 13.846-28.665 29.967v131h48.912C147.935 188.366 148.696 130.569 147.421 98.984zM366.663 231.448h-219v-10h-49l.331 10c3.446 17 34.047 47 49.669 47h217c15.622 0 46.224-30 49.67-47l.33-10h-49V231.448zM365.265 260.448H149.062l-16.157-11h248.518L365.265 260.448z"/></svg>