<svg xmlns="http://www.w3.org/2000/svg" enable-background="new 0 0 299 359" viewBox="0 0 299 359"><path fill="#333" d="M288.3,58H224V24.496C224,6.051,208.772,0,194.127,0H108.9C97.448,0,88.299,2.79,82.318,8.806
		C75.599,15.564,75,23.068,75,24.496V58H12.259C5.931,58,0,63.594,0,70.391v12.296C0,89.484,5.164,95.05,11.492,95.05
		C17.82,95.05,23,100.598,23,107.394v238.708C23,352.881,28.95,359,35.26,359h230.039c6.312,0,10.701-6.119,10.701-12.898V107.394
		c0-6.796,5.18-12.344,11.507-12.344c6.328,0,11.493-5.566,11.493-12.363V70.391C299,63.594,294.627,58,288.3,58z M96,24.862
		C97,22.567,100.829,21,108.9,21h85.227c4.623,0,6.705,0.503,7.716,1.015c0.911,0.461,1.157,0.385,1.157,2.48V58H96V24.862z
		 M88,307.08c0,6.796-5.214,12.362-11.992,12.362c-6.796,0-12.008-5.566-12.008-12.362V123.89c0-6.796,5.212-12.365,12.008-12.365
		c6.778,0,11.992,5.569,11.992,12.365V307.08z M163,307.08c0,6.796-5.701,12.362-12.5,12.362c-6.797,0-12.5-5.566-12.5-12.362
		V123.89c0-6.796,5.703-12.365,12.5-12.365c6.799,0,12.5,5.569,12.5,12.365V307.08z M236,307.08c0,6.796-5.712,12.362-12.508,12.362
		c-6.78,0-12.492-5.566-12.492-12.362V123.89c0-6.796,5.712-12.365,12.492-12.365c6.796,0,12.508,5.569,12.508,12.365V307.08z"/></svg>