<svg xmlns="http://www.w3.org/2000/svg" enable-background="new 0 0 402.552 404.676" viewBox="0 0 402.552 404.676"><path fill="#333" d="M400.012,372.136l-120.75-120.75c20.443-26.378,32.621-59.483,32.621-95.443
		C311.883,69.824,242.076,0,155.941,0C69.823,0,0,69.824,0,155.942c0,86.134,69.823,155.941,155.941,155.941
		c34.873,0,67.059-11.455,93.029-30.791l121.041,121.042c3.906,3.905,10.908,3.234,15.643-1.5l12.857-12.856
		C403.246,383.045,403.916,376.041,400.012,372.136z M40.109,155.942c0-63.974,51.853-115.847,115.833-115.847
		c63.982,0,115.847,51.873,115.847,115.847c0,63.98-51.865,115.847-115.847,115.847C91.961,271.789,40.109,219.923,40.109,155.942z"/></svg>