<svg xmlns="http://www.w3.org/2000/svg" enable-background="new 0 0 385.541 404.348" viewBox="0 0 385.541 404.348"><path fill="#333" fill-rule="evenodd" d="M112.841,0h-28.21V56.42h28.21V0z M225.683,169.262h-65.824
			v65.824h65.824V169.262z M310.313,169.262h-65.824v65.824h65.824V169.262z M300.91,0h-28.211V56.42h28.211V0z M366.733,9.403
			h-47.016v65.824h-65.824V9.403H131.648v65.824H65.824V9.403H28.21C14.086,9.403,0,21.529,0,34.899V373.86
			c0,13.37,14.086,30.487,28.21,30.487h338.523c14.125,0,18.808-14.84,18.808-28.21V37.613
			C385.541,24.248,380.858,9.403,366.733,9.403z M364.731,383.539H20.808V112.841h343.924V383.539z M141.052,263.297H75.228v65.823
			h65.824V263.297z M141.052,169.262H75.228v65.824h65.824V169.262z M225.683,263.297h-65.824v65.823h65.824V263.297z
			 M310.313,263.297h-65.824v65.823h65.824V263.297z" clip-rule="evenodd"/></svg>