<svg xmlns="http://www.w3.org/2000/svg" enable-background="new 0 0 422.738 422.737" viewBox="0 0 422.738 422.737"><path fill="#333" d="M333.68,130.241c-3.752-3.752-9.83-3.752-13.584,0L179.213,268.188l-51.708-54.124
			c-1.707-1.692-8.629-2.536-12.382,1.212l-6.792,6.797c-3.753,3.752-2.91,10.674-1.221,12.372l65.87,69.068
			c4.125,4.125,9.252,3.174,13.005-0.578l154.486-152.318c3.752-3.748,3.752-9.832,0-13.584L333.68,130.241z"/><path fill="#333" d="M211.369,0C94.819,0,0,94.819,0,211.368c0,116.55,94.819,211.369,211.369,211.369
			c116.549,0,211.37-94.819,211.37-211.369C422.738,94.819,327.918,0,211.369,0z M211.369,403.355
			c-105.862,0-191.986-86.125-191.986-191.987c0-105.861,86.125-191.986,191.986-191.986s191.987,86.125,191.987,191.986
			C403.355,317.23,317.23,403.355,211.369,403.355z"/></svg>