<svg xmlns="http://www.w3.org/2000/svg" enable-background="new 0 0 422.738 422.737" viewBox="0 0 422.738 422.737"><path fill="#333" d="M211.369,0C94.819,0,0,94.819,0,211.368c0,116.55,94.819,211.369,211.369,211.369
		c116.549,0,211.37-94.819,211.37-211.369C422.738,94.819,327.918,0,211.369,0z M211.369,403.355
		c-105.862,0-191.986-86.125-191.986-191.987c0-105.861,86.125-191.986,191.986-191.986s191.987,86.125,191.987,191.986
		C403.355,317.23,317.23,403.355,211.369,403.355z"/><path fill="#333" fill-rule="evenodd" d="M307.207,289.235l-78.488-78.488l77.781-77.782
		c1.953-1.953,1.953-5.118,0-7.071l-10.607-10.606c-1.951-1.953-5.117-1.953-7.07,0l-77.782,77.782l-77.782-77.782
		c-1.953-1.953-5.119-1.953-7.071,0l-10.606,10.606c-1.953,1.953-1.953,5.119,0,7.071l77.782,77.782l-78.489,78.488
		c-1.953,1.953-1.953,5.119,0,7.071l10.606,10.606c1.953,1.953,5.118,1.953,7.071,0l78.489-78.488l78.489,78.488
		c1.953,1.953,5.119,1.953,7.07,0l10.607-10.606C309.16,294.354,309.16,291.188,307.207,289.235z" clip-rule="evenodd"/></svg>