<svg xmlns="http://www.w3.org/2000/svg" enable-background="new 0 0 460 460" viewBox="0 0 460 460"><path fill="#474747" d="M230,2.277C104.2,2.277,2.22,104.26,2.22,230.059S104.2,457.838,230,457.838
				c125.799,0,227.779-101.98,227.779-227.779S355.799,2.277,230,2.277z M230,411.57c-100.247,0-181.513-81.266-181.513-181.512
				S129.753,48.547,230,48.547c100.246,0,181.512,81.266,181.512,181.512S330.246,411.57,230,411.57z"/><path fill="#474747" d="M256.184,155.985c13.964,0,27.266,2.726,37.454,7.541c1.286,0.607,2.774,0.664,4.074,0.085
		c1.301-0.576,2.286-1.672,2.699-3.033l6.106-20.11c0.689-2.27-0.35-4.703-2.464-5.779c-4.169-2.117-19.999-9.028-48.743-9.028
		c-31.151,0-57.911,9.924-77.388,28.98c-10.597,10.367-18.478,22.858-23.476,36.858h-36.559c-2.457,0-4.389,2.289-4.389,4.748
		v22.244c0,2.457,1.932,5.008,4.389,5.008h30.416c-0.156,2-0.24,5.131-0.24,7.809c0,2.129,0.053,4.191,0.146,6.191h-30.322
		c-2.457,0-4.389,1.668-4.389,4.125v22.244c0,2.457,1.932,4.631,4.389,4.631h35.82c13.051,40,47.923,63.976,96.077,63.976
		c25.271,0,44.413-4.983,53.901-9.606c2.106-1.025,3.189-3.424,2.583-5.688l-5.233-19.562c-0.376-1.402-1.354-2.572-2.672-3.182
		c-1.317-0.607-2.836-0.605-4.149,0.016c-9.726,4.604-24.744,7.553-39.196,7.553c-29.547,0-51.098-12.506-62.112-33.506H264.7
		c2.458,0,4.8-2.174,4.8-4.631v-22.244c0-2.457-2.342-4.125-4.8-4.125H184.85c-0.153-3-0.245-4.598-0.245-7.043
		c0-2.412,0.09-4.957,0.234-6.957H264.7c2.458,0,4.8-2.551,4.8-5.008v-22.244c0-2.459-2.342-4.748-4.8-4.748h-72.229
		C203.484,169.5,225.633,155.985,256.184,155.985z"/></svg>