<svg xmlns="http://www.w3.org/2000/svg" enable-background="new 0 0 500 500" viewBox="0 0 500 500"><path fill="#333" d="M470.187 376h-28.997c-4.201 0-7.189 3.367-7.189 6.732v77.607c0 3.365 2.988 6.66 7.189 6.66h28.997c4.2 0 7.813-3.295 7.813-6.66v-77.607C478 379.367 474.387 376 470.187 376zM397.277 373.429c0 0-43.511-16.242-67.599-13.195-15.752 1.99-52.814 20.937-67.077 24.363-14.26 3.424-57.251-1.625-74.364-1.625-17.114 0-29.693-.288-33.305 10.76-3.229 9.873 11.958 14.743 11.958 14.743s68.467 8.281 104.112 10.279c19.912 1.114 20.75 3.78 20.87 9.49.106 5.052-14.579 7.614-14.579 7.614l-123.376-9.906c-9.982-1.142-33.502-19.911-33.502-19.911-49.124-57.479-75.964-68.632-88.104-64.59-12.105 4.036-.95 21.32-.95 21.32s77.074 90.238 81.349 95.951c4.281 5.707 18.54 10.276 18.54 10.276s65.603 20.553 74.158 23.98c8.559 3.422 34.226 1.14 34.226 1.14s145.006-27.473 157.85-28.549c18.494-1.543 19.518-5.708 19.518-5.708v-70.799C418 379.522 397.277 373.429 397.277 373.429zM111.349 172.733c1.44.949 3.065 1.405 4.67 1.405 2.759 0 5.465-1.345 7.099-3.818 2.488-3.77 5.097-5.98 7.348-6.225 1.209-.127 2.391.256 3.404.752-4.958 11.694-7.665 24.283-7.665 37.406 0 28.877 13.075 55.195 34.52 74.987 3.187 3.843 8.933 11.289 8.933 20.762 0 13.102 11.544 24.998 25.782 24.998h12.432c9.779 0 18.285-4.658 22.656-12.684 9.086 1.656 18.508 2.946 28.184 2.946 7.53 0 14.903-1.147 22.092-2.16 4.513 7.473 12.691 11.897 22.06 11.897h12.433c14.237 0 25.781-6.791 25.781-21.188 0-7.709 4.419-14.211 8.855-19.191 16.202-12.937 28.54-29.283 35.338-47.677.492.039.982.056 1.483.056h.07c10.081 0 19.177-7.735 19.177-17.815v-38.927c0-10.079-9.096-18.258-19.177-18.258h-.07c-1.768 0-3.474.266-5.09.737-7.748-16.202-18.901-30.5-34.198-41.889 1.511-16.869-1.153-31.892-10.549-36.995-7.186-3.9-21.097 8.03-29.728 15.071-3.389 3.826-7.228 7.218-11.438 10.14 3.874 1.632 6.68 3.258 8.719 4.45.653.382 1.465.853 1.75.981 4.694 1.857 6.961 7.151 5.102 11.848-1.418 3.587-4.875 5.766-8.522 5.767-1.124 0-2.269-.209-3.376-.647-1.432-.566-2.706-1.312-4.181-2.175-4.83-2.823-13.818-8.076-34.81-8.076-26.275 0-46.003 9.286-46.199 9.38-4.559 2.18-10.013.251-12.191-4.304-2.179-4.555-.251-10.013 4.304-12.191.475-.227 6.356-2.997 15.888-5.721-3.505-2.528-6.748-5.394-9.669-8.564-30.457 9.517-55.63 28.172-70.786 52.012-3.358-1.718-7.753-3.122-12.846-2.638-7.71.727-14.438 5.36-19.995 13.783C106.354 164.883 107.434 170.15 111.349 172.733zM344.908 149.719c6.493 0 11.761 5.267 11.761 11.761 0 6.498-5.268 11.762-11.761 11.762-6.497 0-11.762-5.264-11.762-11.762C333.146 154.986 338.411 149.719 344.908 149.719zM267.216 71.924c1.919-1.432 2.47-3.218 2.47-5.359 0-1.7-.409-3.078-1.444-4.139-1.037-1.058-2.117-1.868-3.757-2.427-.591-.2-1.484-.404-1.484-.614v14.452C263 73.52 265.922 72.889 267.216 71.924zM254 36.395c0 .281-1.745.772-2.733 1.48-1.641 1.178-1.872 2.592-1.872 4.244 0 1.024.313 1.908.873 2.655.557.743.686 1.384 1.663 1.92.94.516 2.069.922 2.069 1.218V36.395z"/><path fill="#333" d="M259.46,103.443c26.953,0,48.806-21.85,48.806-48.805c0-26.955-21.853-48.803-48.806-48.803
		c-26.954,0-48.805,21.849-48.805,48.803C210.655,81.593,232.506,103.443,259.46,103.443z M247.304,55.198
		c-2.479-1.154-3.898-2.725-5.354-4.715c-1.454-1.991-2.081-4.464-2.081-7.421c0-2.816,0.764-5.319,2.298-7.509
		c1.539-2.188,3.101-3.869,6.011-5.044c1.974-0.798,4.822-1.318,5.822-1.575v-7.331c0-1.733,3.085-2.603,4.818-2.603h0.043
		c1.733,0,4.139,0.87,4.139,2.603v7.248c0,0.164,3.363,0.516,4.975,1.064c2.293,0.778,3.773,1.814,5.287,3.108
		c1.512,1.292,2.584,2.648,3.283,4.069c0.698,1.42,1.034,2.804,1.034,4.155c0,1.235-0.438,2.345-1.31,3.333
		c-0.873,0.991-1.945,1.487-3.247,1.487c-1.188,0-2.048-0.297-2.666-0.893c-0.614-0.594-1.198-1.565-1.921-2.914
		c-0.93-1.933-1.725-3.44-3.029-4.522c-0.721-0.6-2.406-1.028-2.406-1.297v13.146c1,0.592,4.107,1.233,6.104,1.927
		c2.34,0.816,3.914,1.806,5.557,2.969c1.639,1.164,2.904,2.636,3.824,4.417c0.922,1.781,1.407,3.963,1.407,6.546
		c0,3.096-0.726,5.881-2.319,8.347c-1.596,2.468-3.606,4.4-6.68,5.796c-2.437,1.109-6.893,1.769-7.893,2v5.546
		c0,1.734-2.405,2.866-4.139,2.866h-0.043c-1.733,0-4.818-1.131-4.818-2.866v-5.649c-2-0.367-5.459-1.252-7.883-2.664
		c-2.327-1.373-3.654-3.208-5.109-5.499c-1.456-2.295-2.047-4.524-2.047-6.688c0-1.257,0.5-2.332,1.373-3.229
		c0.875-0.898,2.008-1.347,3.358-1.347c1.096,0,2.02,0.349,2.778,1.048c0.754,0.698,1.373,1.737,1.908,3.109
		c0.653,1.632,1.289,2.991,2.045,4.086c0.755,1.094,1.129,1.996,2.502,2.706c0.564,0.291,1.075,0.52,1.075,0.692V57.792
		C253,57.029,249.387,56.165,247.304,55.198z"/></svg>