<svg xmlns="http://www.w3.org/2000/svg" enable-background="new 0 0 512 512" version="1.0" viewBox="0 0 512 512"><path fill="#474747" d="M380.321,460.386c11.222,0,21.858-2.545,31.374-7.076v40.104c0,4.641-5.093,7.193-8.478,4.247
	l-18.968-16.513c-2.283-1.987-5.573-1.987-7.855,0l-18.968,16.513c-3.384,2.946-8.478,0.395-8.478-4.247v-40.104
	C358.463,457.841,369.099,460.386,380.321,460.386z M445.056,320.588c-2.929-2.928-7.678-2.928-10.606,0l-19.675,19.675
	c-9.647-7.104-21.553-11.317-34.453-11.317c-32.154,0-58.22,26.066-58.22,58.22s26.066,58.22,58.22,58.22s58.22-26.066,58.22-58.22
	c0-8.269-1.735-16.129-4.842-23.253l-45.461,45.462c-1.406,1.406-3.314,2.196-5.303,2.196s-3.897-0.79-5.303-2.196l-15.434-15.434
	c-2.929-2.93-2.929-7.678,0-10.607c2.929-2.928,7.678-2.928,10.606,0l10.13,10.131l42.76-42.761
	c-0.022-0.027-0.046-0.052-0.068-0.079l19.429-19.429C447.985,328.265,447.985,323.517,445.056,320.588z M307.101,387.166
	c0,7.317,1.092,14.38,3.099,21.052H134.489c-2.953-13.981-13.989-25.017-27.97-27.97V84.834
	c13.981-2.953,25.018-13.989,27.97-27.971h184.017c2.953,13.981,13.989,25.018,27.97,27.971V322.27
	C323.098,334.512,307.101,358.999,307.101,387.166z M185.033,194.149c6.605-16.951,20.531-40.787,49.801-62.779
	c3.312-2.489,8.014-1.821,10.501,1.491c2.488,3.312,1.821,8.013-1.491,10.501c-22.777,17.114-35.161,35.298-41.879,49.45
	c-10.047,19.328-11.219,33.759-11.291,34.813c-0.283,4.119,2.818,7.676,6.936,7.978c0.186,0.014,0.37,0.021,0.553,0.021
	c3.881,0,7.167-3.005,7.474-6.936c0.015-0.198,0.913-10.104,7.463-24.271c14.35-0.967,33.592-5.261,49.198-19.419
	c19.718-17.889,28.265-46.509,25.403-85.064c-0.291-3.918-3.554-6.945-7.479-6.945c-0.01,0-0.02,0-0.029,0
	c-2.613,0.01-64.289,0.662-89.647,36.945C178.657,146.942,176.812,168.529,185.033,194.149z M179.808,270.528
	c0,4.143,3.358,7.5,7.5,7.5h78.378c4.142,0,7.5-3.357,7.5-7.5s-3.358-7.5-7.5-7.5h-78.378
	C183.165,263.028,179.808,266.386,179.808,270.528z M266.092,350.919c0-4.143-3.358-7.5-7.5-7.5H146.837c-4.142,0-7.5,3.357-7.5,7.5
	s3.358,7.5,7.5,7.5h111.755C262.734,358.419,266.092,355.061,266.092,350.919z M313.657,311.673c0-4.143-3.358-7.5-7.5-7.5h-159.32
	c-4.142,0-7.5,3.357-7.5,7.5s3.358,7.5,7.5,7.5h159.32C310.299,319.173,313.657,315.815,313.657,311.673z M316.631,423.218H127.769
	c-4.142,0-7.5-3.357-7.5-7.5c0-11.718-9.533-21.25-21.25-21.25c-4.142,0-7.5-3.357-7.5-7.5V78.114c0-4.143,3.358-7.5,7.5-7.5
	c11.718,0,21.25-9.533,21.25-21.251c0-4.143,3.358-7.5,7.5-7.5h197.456c4.142,0,7.5,3.357,7.5,7.5
	c0,11.718,9.533,21.251,21.25,21.251c4.142,0,7.5,3.357,7.5,7.5v238.303c6.017-1.604,12.331-2.471,18.846-2.471
	c3.173,0,6.314,0.209,9.411,0.606v-14.409V12.549H64.109v439.983h268.245v-10.129C326.093,436.96,320.757,430.479,316.631,423.218z"/></svg>