<svg xmlns="http://www.w3.org/2000/svg" enable-background="new 0 0 422.738 422.737" viewBox="0 0 422.738 422.737"><path fill="#333" d="M211.369,0C94.819,0,0,94.819,0,211.368c0,116.55,94.819,211.369,211.369,211.369
		c116.549,0,211.37-94.819,211.37-211.369C422.738,94.819,327.918,0,211.369,0z M211.369,403.355
		c-105.862,0-191.986-86.125-191.986-191.987c0-105.861,86.125-191.986,191.986-191.986s191.987,86.125,191.987,191.986
		C403.355,317.23,317.23,403.355,211.369,403.355z"/><path fill="#333" fill-rule="evenodd" d="M211.077,134.329L72.939,271.076
		c-1.953,1.952-2.053,5.019-0.224,6.848l9.274,9.273c1.829,1.829,4.895,1.729,6.848-0.223l122.24-121.465l122.167,121.465
		c1.953,1.952,5.018,2.053,6.848,0.224l9.273-9.273c1.83-1.83,1.729-4.896-0.223-6.848L211.077,134.329z" clip-rule="evenodd"/></svg>