<svg xmlns="http://www.w3.org/2000/svg" enable-background="new 0 0 512 512" version="1.0" viewBox="0 0 512 512"><path fill="#474747" d="M414.845,108.58L303.257,44.154c-14.731-8.505-31.248-12.758-47.765-12.758s-33.034,4.253-47.765,12.758
	L96.141,108.58c-29.462,17.01-47.765,48.71-47.765,82.73v128.851c0,34.021,18.302,65.721,47.765,82.73l111.587,64.425
	c29.462,17.01,66.067,17.01,95.529,0l111.587-64.425c29.462-17.01,47.765-48.71,47.765-82.73V191.31
	C462.609,157.29,444.307,125.589,414.845,108.58z M163.794,195.52c15.581,0,30.387,5.899,41.691,16.612
	c3.007,2.85,3.134,7.597,0.285,10.604c-2.849,3.005-7.596,3.134-10.603,0.285c-8.507-8.062-19.649-12.501-31.374-12.501
	c-25.155,0-45.621,20.466-45.621,45.621s20.465,45.62,45.621,45.62c11.557,0,22.581-4.328,31.041-12.188
	c3.035-2.817,7.781-2.644,10.599,0.391c2.819,3.034,2.645,7.78-0.39,10.6c-11.244,10.445-25.893,16.197-41.25,16.197
	c-33.426,0-60.621-27.194-60.621-60.62C103.174,222.714,130.368,195.52,163.794,195.52z M345.772,413.086l-44.785,25.857
	c-14.031,8.101-29.763,12.15-45.494,12.15s-31.463-4.05-45.494-12.15l-90.423-52.206c-10.439-6.026-19.445-13.934-26.766-23.503
	c-2.517-3.29-1.891-7.997,1.399-10.515c3.288-2.516,7.996-1.891,10.514,1.399c6.114,7.991,13.634,14.595,22.353,19.628
	l90.423,52.206c23.435,13.528,52.552,13.53,75.988,0l44.785-25.857c3.585-2.069,8.173-0.843,10.245,2.745
	C350.588,406.428,349.359,411.015,345.772,413.086z M307.149,212.842c-1.958,3.65-6.505,5.024-10.154,3.064
	c-6.571-3.524-14.016-5.387-21.528-5.387c-25.156,0-45.621,20.466-45.621,45.621s20.465,45.62,45.621,45.62
	c25.155,0,45.621-20.465,45.621-45.62c0-4.143,3.358-7.5,7.5-7.5s7.5,3.357,7.5,7.5c0,33.426-27.194,60.62-60.621,60.62
	c-33.427,0-60.621-27.194-60.621-60.62c0-33.427,27.194-60.621,60.621-60.621c9.978,0,19.873,2.479,28.617,7.168
	C307.735,204.645,309.107,209.192,307.149,212.842z M343.124,195.121c3.001-2.853,7.749-2.736,10.604,0.266
	c2.854,3.002,2.736,7.749-0.266,10.604l-69.946,66.527c-1.447,1.376-3.308,2.065-5.169,2.065c-1.849,0-3.698-0.68-5.143-2.041
	l-16.744-15.772c-3.015-2.84-3.157-7.586-0.317-10.602c2.84-3.016,7.586-3.158,10.602-0.316l11.577,10.904L343.124,195.121z
	 M395.142,341.468h-41.431c-4.926,0-7.363-2.91-7.363-7.084c0-3.13,1.141-5.216,4.304-8.292l22.297-20.622
	c9.23-9.39,11.615-12.261,11.615-17.972c0-6.534-4.77-11.202-11.459-11.202c-6.015,0-10.163,3.186-12.86,9.555
	c-1.763,3.295-3.578,4.832-6.948,4.832c-4.2,0-6.689-2.636-6.689-6.754c0-1.262,0.207-2.415,0.57-3.568
	c2.541-8.786,11.926-16.967,26.082-16.967c15.867,0,26.549,9.444,26.549,23.062c0,9.664-4.459,14.732-16.697,26.976l-16.179,14.528
	v0.33h28.208c4.045,0,6.482,2.581,6.482,6.589C401.624,338.777,399.187,341.468,395.142,341.468z M423.398,171.544
	c-1.109,0.579-2.295,0.854-3.465,0.854c-2.705,0-5.316-1.468-6.655-4.031c-6.692-12.818-16.848-23.415-29.369-30.645l-90.422-52.205
	c-23.436-13.531-52.552-13.531-75.988,0c-3.585,2.07-8.174,0.843-10.245-2.745c-2.071-3.587-0.842-8.174,2.745-10.245
	c28.062-16.201,62.926-16.201,90.988,0l90.422,52.205c14.993,8.657,27.153,21.345,35.166,36.693
	C428.492,165.097,427.069,169.627,423.398,171.544z"/></svg>