<svg xmlns="http://www.w3.org/2000/svg" enable-background="new 0 0 500 500" viewBox="0 0 500 500"><path fill="#333" d="M150.895 298h149.019c5.487 0 9.935-4.513 9.935-9.999 0-5.487-4.447-10.001-9.935-10.001H150.895c-5.486 0-9.935 4.514-9.935 10.001C140.96 293.487 145.408 298 150.895 298zM217.728 365h-68.639c-5.487 0-9.935 4.514-9.935 10s4.447 10 9.935 10h68.639c5.486 0 9.935-4.514 9.935-10S223.214 365 217.728 365zM211.795 214.783c-1.77-1.685-2.68-3.548-3.546-5.58-.872-2.029-1.692-4.958-2.868-8.793-.526-1.771-1.357-3.15-2.715-4.133-1.35-.984-2.954-1.471-4.919-1.471-2.444 0-4.452.904-6.095 2.691-1.638 1.81-2.44 3.818-2.44 6.068 0 3.035.616 6.127 1.84 9.285 1.22 3.152 3.11 6.185 5.659 9.11 2.559 2.916 4.92 5.355 8.735 7.314 3.817 1.975 6.554 3.254 12.554 3.859v10.228c0 2.145 1.145 3.721 1.779 4.755.629 1.028 2.148 1.549 3.712 1.549 1.706 0 3.03-.637 3.53-1.895.503-1.266.979-3.271.979-6.028V233c6-.569 11.608-2.309 16.148-5.263 4.54-2.943 7.969-6.728 10.303-11.379 2.332-4.646 3.49-9.645 3.49-14.972 0-4.247-.706-8.155-2.167-11.731-1.462-3.571-3.557-6.646-6.269-9.215-2.523-2.477-5.381-4.365-8.593-5.68-3.209-1.301-8.913-2.759-12.913-4.344v-29.153c4 1.928 8.954 5.805 10.391 11.633 1.263 4.963 4.025 7.436 8.301 7.436 2.27 0 4.196-.855 5.791-2.563 1.593-1.702 2.389-3.72 2.389-6.061 0-2.103-.538-4.403-1.604-6.943-1.077-2.517-2.59-4.963-4.557-7.351-2.485-3.131-5.381-5.466-8.719-7.007-3.334-1.531-9.992-2.564-11.992-3.074v-7.568c0-3.836-2.24-5.758-5.033-5.758-2.744 0-4.967 1.972-4.967 5.891v7.436c-9 .842-15.107 3.821-19.887 8.964-4.775 5.134-6.75 11.728-6.75 19.768 0 6.162 1.428 11.207 3.87 15.124 2.442 3.927 4.904 6.956 8.833 9.081 3.928 2.121 7.934 4.05 13.934 5.771v32.593C216 217.749 213.561 216.458 211.795 214.783zM228 188.643c2 1.541 7.958 3.425 10.291 5.638 2.334 2.222 3.418 5.361 3.418 9.418 0 3.791-1.074 7.115-3.473 9.954-2.401 2.852-8.236 4.748-10.236 5.677V188.643zM210.062 162.674c-1.922-1.896-2.465-4.674-2.465-8.371 0-3.875.402-6.781 2.453-8.691 2.043-1.906 5.949-3.453 7.949-4.615v26.838C214 166.283 211.98 164.564 210.062 162.674z"/><polygon fill="#333" points="328.472 368.558 312.441 384.582 344.63 416.607 434.751 333.598 420.478 315.845 419.843 316.38 345.183 385.23"/><path fill="#333" d="M440.06,348.771l-18.042,15.775c1.672,6.188,2.579,12.688,2.579,19.398
		c0,41.065-33.409,74.475-74.476,74.475c-41.065,0-74.475-33.409-74.475-74.475c0-41.066,33.409-74.476,74.475-74.476
		c15.551,0,29.999,4.798,41.955,12.981L411,305.017V55.384C411,34.219,393.781,17,372.616,17H188.375
		C167.211,17,150,34.219,150,55.384V71h-18.522C110.312,71,93,88.407,93,109.572v290.812C93,421.549,110.312,439,131.478,439
		h139.325c17.438,25.077,46.459,41.496,79.318,41.496c53.325,0,96.552-43.227,96.552-96.551
		C446.673,371.533,444.326,359.671,440.06,348.771z M173,55.384C173,46.669,179.66,40,188.375,40h184.241
		C381.331,40,388,46.669,388,55.384V295.11c-10.506-4.485-21.971-7.157-34-7.633V109.572C354,88.407,336.883,71,315.719,71H173
		V55.384z M131.478,416c-8.715,0-15.478-6.9-15.478-15.615V109.572C116,100.857,122.763,94,131.478,94h184.241
		c8.715,0,16.281,6.857,16.281,15.572v179.526c-21.865,4.152-41.105,15.688-55.064,31.901H149.089c-5.487,0-9.935,4.513-9.935,10
		c0,5.486,4.447,10,9.935,10h114.56c-6.438,12.938-10.078,27.512-10.078,42.945c0,11.238,1.927,22.023,5.456,32.055H131.478z"/></svg>