<svg xmlns="http://www.w3.org/2000/svg" enable-background="new 0 0 500 500" viewBox="0 0 500 500"><path fill="#333" d="M425,52.272C425,28.926,406.074,10,382.727,10H109.272C85.926,10,67,28.926,67,52.272v390.455
	C67,466.074,85.926,485,109.272,485h273.455C406.074,485,425,466.074,425,442.728V52.272z M174,419h-45v-45h45V419z M174,336h-45
	v-46h45V336z M174,252h-45v-45h45V252z M267,419h-45v-45h45V419z M267,336h-45v-46h45V336z M267,252h-45v-45h45V252z M362,419h-46
	v-45h46V419z M362,336h-46v-46h46V336z M362,252h-46v-45h46V252z M362,155H129V78h233V155z"/></svg>