<svg xmlns="http://www.w3.org/2000/svg" enable-background="new 0 0 500 500" viewBox="0 0 500 500"><path fill="#333" d="M61.276,132.296c2.432-0.006,4.903-0.601,7.199-1.856l182.293-89.908L434.47,129.51
		c7.334,3.944,16.484,1.213,20.435-6.107c3.949-7.313,1.215-16.442-6.107-20.392L257.854,10.142
		c-4.499-2.427-9.927-2.407-14.41,0.05L53.96,104.048c-7.286,3.995-9.963,13.145-5.963,20.438
		C50.752,129.49,55.93,132.31,61.276,132.296z"/><path fill="#333" d="M395.627 141.437L260.475 76.29c-3.299-1.831-6.958-2.752-10.62-2.752-3.648 0-7.311.922-10.61 2.752l-135.007 65.147C97.299 145.286 93 152.376 93 160.289v136.855C93 309.186 100.934 317 113.003 317h273.712c12.053 0 20.285-7.814 20.285-19.855V160.289C407 152.376 402.551 145.286 395.627 141.437zM387 297H113V160.289l136.999-64.947L387 160.289V297zM454.17 380h-27.165c-3.936 0-7.005 3.468-7.005 6.62v72.702c0 3.152 3.069 5.678 7.005 5.678h27.165c3.934 0 7.83-2.525 7.83-5.678V386.62C462 383.468 458.104 380 454.17 380zM386.697 377.904c0 0-41.177-15.215-63.741-12.361-14.755 1.864-49.683 19.613-63.044 22.823-13.359 3.208-53.735-1.522-69.768-1.522-16.032 0-27.868-.27-31.251 10.08-3.024 9.248 11.176 13.812 11.176 13.812s64.127 7.758 97.52 9.628c18.654 1.046 19.43 3.543 19.544 8.892.1 4.732-13.66 7.133-13.66 7.133l-115.582-9.28c-9.351-1.069-31.386-18.652-31.386-18.652-46.017-53.847-71.162-64.293-82.536-60.507-11.339 3.78-.889 19.972-.889 19.972s72.202 84.535 76.207 89.887c4.011 5.347 17.369 9.626 17.369 9.626s61.455 19.255 69.47 22.466c8.018 3.205 32.063 1.068 32.063 1.068s136.668-25.737 148.701-26.745c17.328-1.445 19.111-5.348 19.111-5.348v-66.323C406 383.613 386.697 377.904 386.697 377.904z"/><path fill="#333" d="M248.96,129c-3.568,0-5.96,3.566-5.96,7.133v15.09c-6,0.529-9.833,1.599-13.894,3.239
		c-5.99,2.42-10.69,5.883-13.853,10.387c-3.163,4.505-4.807,9.657-4.807,15.455c0,6.086,1.467,11.177,4.462,15.275
		c2.995,4.097,7.278,7.332,12.382,9.704c4.285,1.992,9.71,3.771,15.71,5.339v32.746c-2-0.354-3.028-0.824-4.188-1.424
		c-2.828-1.461-5.146-3.317-6.702-5.57c-1.558-2.252-3.07-5.056-4.412-8.411c-1.103-2.827-2.464-4.959-4.021-6.397
		c-1.558-1.438-3.478-2.156-5.73-2.156c-2.78,0-5.075,0.923-6.872,2.767c-1.798,1.845-2.7,4.062-2.7,6.649
		c0,4.457,1.496,9.046,4.491,13.766c2.995,4.721,7.137,8.494,11.929,11.322c4.991,2.902,11.205,4.725,18.205,5.482v11.625
		c0,3.568,2.392,5.98,5.96,5.98h0.088c3.568,0,6.952-2.412,6.952-5.98v-11.414c6-0.473,12.009-1.833,17.025-4.112
		c6.325-2.875,11.005-6.853,14.288-11.933c3.281-5.079,4.862-10.806,4.862-17.18c0-5.319-0.977-9.812-2.869-13.478
		c-1.895-3.666-4.544-6.696-7.923-9.093c-3.379-2.396-7.236-4.432-12.053-6.11c-4.104-1.43-8.331-2.748-13.331-3.969v-27.055
		c2,0.55,4.251,1.431,5.738,2.666c2.684,2.229,4.861,5.332,6.778,9.309c1.485,2.78,2.802,4.78,4.072,6.002
		c1.269,1.222,3.095,1.833,5.54,1.833c2.682,0,4.908-1.018,6.705-3.056c1.797-2.036,2.688-4.324,2.688-6.864
		c0-2.779-0.722-5.63-2.159-8.554c-1.438-2.923-3.718-5.715-6.832-8.374c-3.116-2.66-6.788-4.792-11.508-6.398
		c-3.321-1.129-8.022-1.852-11.022-2.187v-14.92c0-3.567-3.384-7.133-6.952-7.133H248.96z M243,190.291
		c-2-0.616-4.192-1.45-6.13-2.511c-2.013-1.102-3.718-2.419-4.868-3.954c-1.15-1.533-1.788-3.354-1.788-5.463
		c0-3.402,1.908-6.313,5.287-8.734c2.036-1.458,3.5-2.47,7.5-3.049V190.291z M256,213.901c1,0.431,2.623,0.853,3.833,1.266
		c3.379,1.15,6.012,2.815,8.145,4.996c2.131,2.182,3.138,5.021,3.138,8.518c0,4.409-1.762,8.086-5.715,11.034
		c-2.662,1.984-6.4,3.285-9.4,3.933V213.901z"/></svg>