<svg xmlns="http://www.w3.org/2000/svg" enable-background="new 0 0 500 500" viewBox="0 0 500 500"><path fill="#333" d="M248.604,475.59c-0.038,0-0.076-0.003-0.114-0.003c-0.038,0-0.075,0.003-0.113,0.003H248.604z"/><path fill="#333" d="M295.511,111.29c1.371-6.389,2.212-13.197,2.212-20.313c0-41.739-18.905-75.697-42.143-75.697
	c-7.903,0-15.776,4.106-22.17,11.561c-11.638,13.57-17.549,36.29-16.885,63.155c6.766-2.545,13.888-4.366,21.272-5.371
	c0.192-28.474,9.545-41.168,11.851-43.857c2.592-3.022,4.815-4.095,5.931-4.095c6.338,0,20.75,20.516,20.75,54.304
	c0,30.791-20.626,55.75-20.945,56.131c-3.809,4.501-3.257,11.239,1.238,15.059c2.012,1.71,4.473,2.546,6.922,2.546
	c3.029,0,6.04-1.28,8.155-3.769c0.296-0.348,2.445-2.914,5.389-7.266c0.688,2.372,1.068,4.874,1.068,7.468
	c0,14.799-11.997,26.797-26.797,26.797c-14.799,0-26.797-11.997-26.797-26.797c0-11.78,7.605-21.778,18.17-25.369
	c4.869-8.342,10.601-20.677,12.563-34.863c-1.347-0.054-2.698-0.09-4.058-0.09c-54.581,0-98.589,44.247-98.589,98.828
	c0,44.592,29.348,82.28,70.348,94.584v15.443l-21.921,16.446c-2.769,2.095-2.816,5.4,0.008,7.456l19.84,14.484l-17.052,14.252
	c-2.379,1.991-2.411,4.934-0.062,6.942l17.051,14.585l-16.653,14.554c-2.242,1.96-2.265,4.787-0.053,6.765l16.246,14.524
	l-17.466,14.617c-2.508,2.099-2.379,5.234,0.299,7.221l19.414,14.408c0.185,15.598,13.165,28.308,28.791,28.374
	C267.181,484.242,280,471.348,280,455.592V294.236c40-12.304,70.15-49.992,70.15-94.584
	C350.15,160.997,327.814,127.532,295.511,111.29z"/></svg>