<svg xmlns="http://www.w3.org/2000/svg" enable-background="new 0 0 500 500" viewBox="0 0 500 500"><path fill="#333" d="M477.382,88.512L348.034,38.551c-2.86-1.107-13.291-4.627-21.536-4.627c-8.245,0-17.704,3.52-20.565,4.627
		L176.562,88.562c-1.19,0.46-2.328,0.983-3.409,1.607c-1.081-0.624-2.219-1.184-3.409-1.644L40.373,38.458
		c-2.86-1.107-5.859-1.655-8.842-1.655c-4.878,0-9.729,1.454-13.867,4.29C10.997,45.662,7,53.223,7,61.306v318.076
		c0,10.121,6.234,19.202,15.674,22.854l129.376,50.087c2.86,1.107,11.861,4.865,20.605,4.865c8.743,0,18.732-3.758,21.592-4.865
		l129.372-50.074c1.177-0.455,2.304-1.002,3.375-1.618c1.071,0.616,2.198,1.152,3.375,1.608l129.371,50.059
		c2.86,1.107,5.859,1.651,8.842,1.651c4.878,0,9.673-1.457,13.811-4.292c6.667-4.569,10.608-12.132,10.608-20.215V111.367
		C493,101.245,486.822,92.165,477.382,88.512z M469,429.442l-129.652-50.034c0-0.009-0.348-0.018-0.348-0.027V366.12
		c-2.687,0.574-5.474,0.88-8.335,0.88H315v12.381c0,0.009-0.348,0.018-0.348,0.027L185,429.442V367h-14.717
		c-3.202,0-6.306-0.39-9.283-1.104v63.546L31,379.381V61.306l130,50.061v61.744l24-20.488v-41.256l130-50.034v90.439l24,20.489
		V61.333l130,50.034V429.442z"/><path fill="#333" d="M131.818,242.481l12.026,12.225l17.156-13.9V336h62v-76.542c0-4.982,3.354-9.458,8.336-9.458h35.629
		c4.983,0,8.035,4.476,8.035,9.458V336h61v-95.234l17.842,13.901l12.515-12.227l-117.151-99.946L131.818,242.481z"/></svg>