<svg xmlns="http://www.w3.org/2000/svg" enable-background="new 0 0 500 500" viewBox="0 0 500 500"><path fill="#333" d="M250.054,49.552L11.171,252.9l24.766,24.862L71,249.493V423.23C71,434.817,80.596,444,92.187,444h315.635
		c11.593,0,21.179-9.183,21.179-20.77V249.413l35.068,28.271l24.81-24.866L250.054,49.552z M395,409H105V218.333L250.051,99.277
		L395,219.545V409z"/><path fill="#333" d="M153.31,281h48.835c3.854,0,6.855-3.778,6.855-7.63v-31.819l-11,12.369V270h-41v-41h34.491l9.468-11h-47.65
		c-3.853,0-7.31,2.682-7.31,6.535v48.835C146,277.222,149.457,281,153.31,281z"/><path fill="#333" d="M208.285 217.715l-27.858 31.841-7.849-8.078c-2.083-2.143-5.508-2.192-7.651-.11-2.143 2.083-2.192 5.508-.11 7.651l11.938 12.287c1.02 1.051 2.42 1.64 3.881 1.64.047 0 .094 0 .141-.002 1.511-.039 2.936-.708 3.931-1.845l31.722-36.258c1.968-2.249 1.74-5.668-.51-7.636C213.67 215.238 210.253 215.467 208.285 217.715zM198 370h-41v-41h34.491l9.468-10h-47.65c-3.853 0-7.31 2.326-7.31 6.179v48.835c0 3.852 3.457 6.986 7.31 6.986h48.835c3.854 0 6.855-3.134 6.855-6.986v-31.819l-11 12.369V370z"/><path fill="#333" d="M208.285 318.359L180.427 350.2l-7.849-8.078c-2.083-2.143-5.508-2.192-7.651-.11-2.143 2.083-2.192 5.508-.11 7.651l11.938 12.287c1.02 1.05 2.42 1.64 3.881 1.64.047 0 .094 0 .141-.002 1.511-.039 2.936-.708 3.931-1.845l31.722-36.258c1.968-2.249 1.74-5.668-.51-7.636C213.67 315.882 210.253 316.111 208.285 318.359zM242.548 235.5c0 2.989 2.423 5.5 5.411 5.5h97.397c2.988 0 5.411-2.511 5.411-5.5 0-2.989-2.423-5.5-5.411-5.5h-97.397C244.971 230 242.548 232.511 242.548 235.5zM247.959 267h61.685c2.988 0 5.411-2.511 5.411-5.5s-2.423-5.5-5.411-5.5h-61.685c-2.988 0-5.411 2.511-5.411 5.5S244.971 267 247.959 267zM345.356 329h-97.397c-2.988 0-5.411 2.511-5.411 5.5s2.423 5.5 5.411 5.5h97.397c2.988 0 5.411-2.511 5.411-5.5S348.345 329 345.356 329zM309.644 355h-61.685c-2.988 0-5.411 2.511-5.411 5.5s2.423 5.5 5.411 5.5h61.685c2.988 0 5.411-2.511 5.411-5.5S312.632 355 309.644 355z"/></svg>