<svg xmlns="http://www.w3.org/2000/svg" enable-background="new 0 0 500 500" viewBox="0 0 500 500"><path fill="#333" d="M26 124v292h448V124H26zM407.696 151.618c7.785 0 14.095 6.311 14.095 14.095 0 7.785-6.311 14.095-14.095 14.095-7.785 0-14.095-6.311-14.095-14.095C393.601 157.929 399.912 151.618 407.696 151.618zM350.827 151.618c7.785 0 14.095 6.311 14.095 14.095 0 7.785-6.311 14.095-14.095 14.095-7.784 0-14.095-6.311-14.095-14.095C336.732 157.929 343.043 151.618 350.827 151.618zM293.958 151.618c7.785 0 14.095 6.311 14.095 14.095 0 7.785-6.311 14.095-14.095 14.095s-14.095-6.311-14.095-14.095C279.862 157.929 286.173 151.618 293.958 151.618zM143.422 151.618c7.785 0 14.096 6.311 14.096 14.095 0 7.785-6.311 14.095-14.096 14.095-7.785 0-14.095-6.311-14.095-14.095C129.326 157.929 135.637 151.618 143.422 151.618zM91.013 151.618c7.785 0 14.095 6.311 14.095 14.095 0 7.785-6.311 14.095-14.095 14.095-7.785 0-14.095-6.311-14.095-14.095C76.918 157.929 83.228 151.618 91.013 151.618zM422 373H77V213h345V373zM165 100.008c0-2.213-1.794-4.008-4.008-4.008H53.008C50.794 96 49 97.794 49 100.008v8.984c0 2.213 1.794 4.008 4.008 4.008h107.984c2.213 0 4.008-1.794 4.008-4.008V100.008zM77 432.008c0-2.213-1.794-4.008-4.008-4.008H39.008c-2.213 0-4.008 1.794-4.008 4.008v8.985c0 2.213 1.794 4.008 4.008 4.008h33.984c2.213 0 4.008-1.794 4.008-4.008V432.008zM464 432.008c0-2.213-1.794-4.008-4.008-4.008h-33.984c-2.213 0-4.008 1.794-4.008 4.008v8.985c0 2.213 1.794 4.008 4.008 4.008h33.984c2.213 0 4.008-1.794 4.008-4.008V432.008zM309 100.008c0-2.213-1.794-4.008-4.008-4.008H197.008c-2.213 0-4.008 1.794-4.008 4.008v8.984c0 2.213 1.794 4.008 4.008 4.008h107.984c2.213 0 4.008-1.794 4.008-4.008V100.008zM453 100.008c0-2.213-1.794-4.008-4.008-4.008H341.008c-2.213 0-4.008 1.794-4.008 4.008v8.984c0 2.213 1.794 4.008 4.008 4.008h107.984c2.213 0 4.008-1.794 4.008-4.008V100.008z"/><polygon fill="#333" points="252.062 228 213.871 228 101.24 353 139.431 353"/><polygon fill="#333" points="181.326 353 293.958 228 279.249 228 166.618 353"/><polygon fill="#333" points="336.251 353 409 272.689 409 228 393.494 228 280.862 353"/></svg>