<svg xmlns="http://www.w3.org/2000/svg" enable-background="new 0 0 500 500" viewBox="0 0 500 500"><path fill="#333" d="M461.809,260H423v-95.589c0-8.284-7.194-15.411-15.478-15.411H311V89.41c0-8.284-6.39-15.41-14.674-15.41
	H279V51.933c0-4.48-3.294-7.933-7.774-7.933h-44.688c-4.48,0-8.538,3.453-8.538,7.933V74h-16.562C193.153,74,186,81.126,186,89.41
	V149H90.242C81.957,149,75,156.126,75,164.411V260H35.954C27.67,260,21,266.716,21,275v216h192v-64.917
	c0-4.615,3.776-8.083,8.391-8.083h54.218c4.615,0,8.391,3.468,8.391,8.083V491h193V275C477,266.716,470.094,260,461.809,260z
	 M104,189h30v20h-30V189z M104,248h30v20h-30V248z M82,448H52v-30h30V448z M134,448h-30v-30h30V448z M186,448h-30v-30h30V448z
	 M186,385H52v-20h134V385z M186,326H52v-20h134V326z M186,268h-30v-20h30V268z M186,209h-30v-20h30V209z M284,385h-71v-20h71V385z
	 M284,326h-71v-20h71V326z M284,268h-71v-20h71V268z M284,209h-71v-20h71V209z M284,150h-71v-20h71V150z M363,189h30v20h-30V189z
	 M363,248h30v20h-30V248z M311,189h30v20h-30V189z M311,248h30v20h-30V248z M341,448h-30v-30h30V448z M393,448h-30v-30h30V448z
	 M445,448h-30v-30h30V448z M445,385H311v-20h134V385z M445,326H311v-20h134V326z"/></svg>