<svg xmlns="http://www.w3.org/2000/svg" enable-background="new 0 0 500 500" viewBox="0 0 500 500"><path fill="#333" d="M15 181.495V479h122v-62H39v-20h98v-44H39v-20h98v-44H39v-20h98v-44H39v-20h98v-39H30.429C22.145 166 15 173.211 15 181.495zM472.078 166H365v39h100v20H365v44h100v20H365v44h100v20H365v44h100v20H365v62h122V181.495C487 173.211 480.362 166 472.078 166zM330.307 18H172.2c-8.284 0-15.2 6.982-15.2 15.266V479h63v-92.419c0-6.6 5.175-11.581 11.775-11.581h38.957c6.6 0 12.268 4.981 12.268 11.581V479h62V33.266C345 24.982 338.591 18 330.307 18zM217 320h-30v-30h30V320zM217 250h-30v-30h30V250zM217 180h-30v-30h30V180zM217 110h-30V80h30V110zM266 320h-30v-30h30V320zM266 250h-30v-30h30V250zM266 180h-30v-30h30V180zM266 110h-30V80h30V110zM315 320h-30v-30h30V320zM315 250h-30v-30h30V250zM315 180h-30v-30h30V180zM315 110h-30V80h30V110z"/></svg>