<svg xmlns="http://www.w3.org/2000/svg" viewBox="0 0 512 512"><path fill="#333" d="M392.214 183.95c0-11.848-9.788-21.502-21.636-21.502H152.483c-11.848 0-21.269 9.654-21.269 21.502v12.498h261V183.95zm-119-75.052V48.802c0-5.924-5.011-10.354-10.934-10.354h-.171c-5.924 0-10.896 4.43-10.896 10.354v60.026c-32 3.151-58.553 18.62-64.538 41.62h150.163c-5.946-23-31.624-38.23-63.624-41.55z"/><circle cx="261.62" cy="226.069" r="10.443" fill="#333" transform="rotate(-67.5 261.616 226.064)"/><circle cx="261.62" cy="270.069" r="10.443" fill="#333" transform="rotate(-67.5 261.616 270.063)"/><circle cx="261.62" cy="314.069" r="10.443" fill="#333" transform="rotate(-67.5 261.617 314.062)"/><circle cx="261.62" cy="358.069" r="10.443" fill="#333" transform="rotate(-67.5 261.617 358.061)"/><circle cx="261.62" cy="402.069" r="10.443" fill="#333" transform="rotate(-67.5 261.617 402.06)"/><circle cx="261.62" cy="446.069" r="10.443" fill="#333" transform="rotate(-67.5 261.617 446.06)"/><path fill="#333" d="M222.945 215.713c-5.667-1.069-11.128 2.659-12.197 8.327-1.069 5.668 2.658 11.129 8.326 12.198 5.667 1.069 11.129-2.659 12.198-8.326 1.069-5.669-2.659-11.13-8.327-12.199zm-8.155 43.237c-5.668-1.068-11.129 2.659-12.198 8.328-1.069 5.667 2.659 11.128 8.326 12.197 5.668 1.069 11.129-2.659 12.198-8.326 1.07-5.669-2.659-11.129-8.326-12.199zm-8.156 43.238c-5.668-1.069-11.129 2.659-12.197 8.326-1.069 5.668 2.658 11.129 8.326 12.198 5.667 1.069 11.129-2.659 12.197-8.326 1.069-5.667-2.658-11.129-8.326-12.198zm-8.156 43.238c-5.667-1.069-11.128 2.659-12.197 8.327-1.069 5.667 2.658 11.129 8.326 12.197 5.668 1.069 11.129-2.658 12.198-8.326 1.069-5.668-2.659-11.129-8.327-12.198zm-8.156 43.237c-5.668-1.068-11.129 2.659-12.198 8.327-1.068 5.667 2.659 11.129 8.326 12.198 5.668 1.068 11.129-2.659 12.198-8.327 1.07-5.667-2.659-11.129-8.326-12.198zm-8.156 43.237c-5.667-1.068-11.128 2.659-12.197 8.327-1.069 5.668 2.658 11.129 8.326 12.198 5.667 1.068 11.129-2.659 12.198-8.327 1.069-5.667-2.659-11.128-8.327-12.198zm121-195.662c5.668-1.069 9.396-6.53 8.326-12.198-1.069-5.668-6.53-9.396-12.197-8.327-5.668 1.069-9.396 6.53-8.327 12.199 1.069 5.667 6.531 9.396 12.198 8.326zm8.156 43.238c5.667-1.069 9.396-6.53 8.326-12.197-1.069-5.669-6.53-9.397-12.198-8.328-5.667 1.069-9.395 6.53-8.326 12.199 1.07 5.666 6.53 9.395 12.198 8.326zm8.156 43.237c5.668-1.069 9.396-6.53 8.326-12.198-1.068-5.667-6.529-9.396-12.197-8.326-5.668 1.068-9.396 6.53-8.326 12.198 1.068 5.667 6.53 9.395 12.197 8.326zm8.156 43.237c5.668-1.068 9.396-6.53 8.326-12.197-1.069-5.668-6.53-9.396-12.197-8.327-5.668 1.069-9.396 6.53-8.327 12.198 1.069 5.668 6.53 9.396 12.198 8.326zm8.156 43.238c5.667-1.069 9.395-6.531 8.326-12.198-1.069-5.668-6.53-9.396-12.198-8.327-5.667 1.069-9.396 6.531-8.326 12.198 1.069 5.668 6.53 9.396 12.198 8.327zm4.284 22.712c-5.668 1.069-9.396 6.53-8.327 12.198 1.069 5.668 6.531 9.396 12.198 8.327 5.668-1.069 9.396-6.53 8.326-12.198-1.069-5.667-6.53-9.395-12.197-8.327zm-2.485-215.938c-5.368 2.109-8.011 8.17-5.902 13.54 2.108 5.368 8.17 8.011 13.538 5.902 5.368-2.108 8.011-8.17 5.902-13.538-2.109-5.369-8.17-8.011-13.538-5.904zm29.623 46.858c-2.108-5.369-8.169-8.011-13.538-5.903-5.367 2.108-8.011 8.17-5.902 13.539 2.109 5.368 8.17 8.011 13.539 5.902 5.367-2.108 8.01-8.17 5.901-13.538zm16.085 40.954c-2.107-5.368-8.169-8.012-13.537-5.902-5.369 2.107-8.011 8.17-5.902 13.538 2.107 5.368 8.17 8.011 13.537 5.902 5.369-2.108 8.011-8.169 5.902-13.538zm16.086 40.956c-2.108-5.369-8.17-8.012-13.537-5.903-5.369 2.108-8.013 8.17-5.903 13.538 2.108 5.369 8.17 8.012 13.538 5.902 5.369-2.108 8.01-8.17 5.902-13.537zm16.086 40.954c-2.108-5.369-8.17-8.011-13.538-5.903-5.368 2.108-8.012 8.171-5.902 13.538 2.108 5.369 8.17 8.012 13.538 5.903 5.368-2.109 8.009-8.17 5.902-13.538zM169.113 221.866c-2.108 5.368.534 11.43 5.902 13.538 5.368 2.108 11.43-.534 13.538-5.902 2.108-5.37-.534-11.431-5.902-13.54-5.368-2.107-11.428.535-13.538 5.904zm3.356 48.59c2.108-5.369-.535-11.431-5.902-13.539-5.369-2.107-11.43.534-13.538 5.903-2.109 5.368.534 11.43 5.901 13.538 5.369 2.109 11.43-.534 13.539-5.902zm-21.988 27.416c-5.368-2.109-11.43.534-13.537 5.902-2.109 5.368.533 11.43 5.902 13.538 5.367 2.108 11.43-.534 13.537-5.902 2.108-5.368-.533-11.43-5.902-13.538zm-16.086 40.954c-5.367-2.108-11.429.534-13.537 5.903-2.108 5.367.533 11.43 5.902 13.537 5.368 2.109 11.43-.533 13.538-5.902 2.109-5.368-.534-11.429-5.903-13.538zM118.31 379.78c-5.368-2.107-11.43.534-13.538 5.903-2.107 5.368.534 11.43 5.902 13.538 5.368 2.108 11.43-.534 13.538-5.903 2.109-5.367-.534-11.429-5.902-13.538z"/></svg>