<svg xmlns="http://www.w3.org/2000/svg" enable-background="new 0 0 512 512" viewBox="0 0 512 512"><path fill="#333" d="M369.979 3.866H142.019c-17.221 0-31.178 13.954-31.178 31.169v134.744h290.318V35.035C401.159 17.82 387.205 3.866 369.979 3.866zM162.704 128.38c0 6.872-5.589 12.437-12.452 12.437-6.877 0-12.45-5.564-12.45-12.437V55.824c0-6.88 5.573-12.438 12.45-12.438 6.863 0 12.452 5.559 12.452 12.438V128.38zM110.841 191.088v285.869c0 17.223 13.957 31.177 31.178 31.177h227.961c17.226 0 31.18-13.954 31.18-31.177V191.088H110.841zM162.704 324.805c0 6.88-5.589 12.449-12.452 12.449-6.877 0-12.45-5.569-12.45-12.449v-72.536c0-6.88 5.573-12.452 12.45-12.452 6.863 0 12.452 5.572 12.452 12.452V324.805z"/></svg>