<svg xmlns="http://www.w3.org/2000/svg" enable-background="new 0 0 512 512" viewBox="0 0 512 512"><path fill="#333" d="M427.115 5.504H84.854c-10.904 0-19.752 8.851-19.752 19.753v57.487h381.795V25.257C446.897 14.354 438.053 5.504 427.115 5.504zM118.389 63.434c-10.964 0-19.84-8.887-19.84-19.853 0-10.96 8.876-19.839 19.84-19.839 10.963 0 19.839 8.879 19.839 19.839C138.228 54.547 129.352 63.434 118.389 63.434zM174.704 63.434c-10.964 0-19.843-8.887-19.843-19.853 0-10.96 8.879-19.839 19.843-19.839 10.959 0 19.854 8.879 19.854 19.839C194.558 54.547 185.663 63.434 174.704 63.434zM427.115 109.567H84.854c-10.904 0-19.752 8.851-19.752 19.753v377.176h381.795V129.32C446.897 118.417 438.053 109.567 427.115 109.567zM256 423.72c-71.407 0-129.278-57.89-129.278-129.282 0-71.387 57.871-129.276 129.278-129.276 71.39 0 129.266 57.89 129.266 129.276C385.266 365.83 327.39 423.72 256 423.72z"/><path fill="#333" d="M308.128,268.997c-6.071,6.207-14.638,10.072-24.145,10.072c-9.792,0-18.592-4.091-24.68-10.615
		c-6.083,6.524-14.884,10.615-24.672,10.615c-10.082,0-19.103-4.353-25.218-11.214c-6.083,6.861-15.121,11.214-25.202,11.214
		c-10.686,0-20.179-4.881-26.261-12.448c-2.501,8.845-3.864,18.175-3.864,27.816c0,56.287,45.625,101.917,101.913,101.917
		c56.271,0,101.902-45.63,101.902-101.917c0-8.302-1.03-16.355-2.895-24.086c-5.953,5.396-13.948,8.718-22.734,8.718
		C322.746,279.069,314.183,275.204,308.128,268.997z"/></svg>