<svg xmlns="http://www.w3.org/2000/svg" enable-background="new 0 0 512 512" viewBox="0 0 512 512"><path fill="#333" d="M245.165,214.11l-57.347-49.991c-4.637-2.673-12.515-2.673-17.158,0
		c-4.633,2.673-9.66,7.622-9.66,12.979v26.827L27.29,227.579L161,251.231v25.841c0,5.357,5.027,10.307,9.66,12.979
		c4.643,2.684,12.001,2.684,16.636,0l57.61-49.981c4.64-2.673,7.623-7.632,7.623-12.98
		C252.529,221.731,249.805,216.783,245.165,214.11z"/><path fill="#333" d="M166.067,138.849l36.288,14.345V40.203h195.258l-86.433,46.843c0,0-11.877,5.28-14.516,9.237
		c-2.64,3.962-2.64,8.575-2.64,27.054v263.906h-91.67v-85.279l-36.288,14.346v89.409c0,0,1.321,17.149,23.093,17.149h104.865v65.319
		c0,0,1.322,27.707,25.072,18.47l151.091-83.789c0,0,13.849-3.956,13.849-23.092V23.05c0,0,0-19.13-23.748-19.13H193.78
		c0,0-27.713-5.281-27.713,19.793V138.849z"/></svg>