<svg xmlns="http://www.w3.org/2000/svg" enable-background="new 0 0 422.738 422.737" viewBox="0 0 422.738 422.737"><path fill="#333" d="M211.369,0C94.819,0,0,94.819,0,211.368c0,116.55,94.819,211.369,211.369,211.369
		c116.549,0,211.37-94.819,211.37-211.369C422.738,94.819,327.918,0,211.369,0z M211.369,403.355
		c-105.862,0-191.986-86.125-191.986-191.987c0-105.861,86.125-191.986,191.986-191.986s191.987,86.125,191.987,191.986
		C403.355,317.23,317.23,403.355,211.369,403.355z"/><path fill="#333" d="M339,217.737c0,2.762-2.238,5-5,5H88c-2.761,0-5-2.238-5-5v-15c0-2.761,2.239-5,5-5h246
		c2.762,0,5,2.239,5,5V217.737z"/></svg>