<svg xmlns="http://www.w3.org/2000/svg" enable-background="new 0 0 512 512" viewBox="0 0 512 512"><path fill="#333" d="M280.103,320.104c13.268-13.123,13.606-35.914,10.089-39.922l16.352-26.825
		c2.093,1.794,4.862,2.648,7.666,2.046c4.925-1.047,8.021-6.116,6.9-11.304c-0.024-0.108-0.072-0.193-0.097-0.301
		c-0.192-1-0.566-1.878-1.083-2.649c-1.985-3.432-5.851-5.394-9.752-4.55c-1.083,0.228-2.071,0.686-2.949,1.264
		c-0.506,0.205-0.976,0.458-1.359,0.746c-0.844-3.202-3.106-5.633-5.9-6.681c-1.303-0.698-2.747-0.975-4.312-0.458
		c-0.191,0.025-0.396,0.012-0.601,0.061c-4.925,1.059-8.019,6.116-6.901,11.329c0.929,4.285,4.434,7.284,8.405,7.608l-15.291,24.126
		c0,0-18.202-3.72-33.577-0.265c-12.907-10.328-30.267-18.07-53.407-18.07c-59.066,0-64.448,48.663-64.688,63.93
		c-28.053,1.588-46.051,4.044-46.051,6.788c0,1.434,4.888,2.782,13.485,3.975c10.089,5.741,54.864,13.399,108.583,13.399
		c53.718,0,98.495-7.658,108.594-13.399c8.598-1.192,13.475-2.541,13.475-3.975C327.684,324.186,309.035,321.693,280.103,320.104z
		 M159.407,283.203c0-2.274,1.819-4.081,4.082-4.081c2.192,0,4.094,1.807,4.094,4.081c0,2.179-1.902,3.984-4.094,3.984
		C161.226,287.188,159.407,285.382,159.407,283.203z M168.857,304.537c-2.19,0-4.093-1.819-4.093-4.095
		c0-2.178,1.902-4.081,4.093-4.081c2.266,0,4.07,1.903,4.07,4.081C172.928,302.718,171.123,304.537,168.857,304.537z
		 M187.364,295.458c-2.265,0-4.082-1.817-4.082-4.093c0-2.263,1.816-4.08,4.082-4.08c2.273,0,4.079,1.817,4.079,4.08
		C191.443,293.641,189.637,295.458,187.364,295.458z"/><path fill="#333" d="M458.43,89.44H53.568c-25.548,0-46.254,20.708-46.254,46.255v240.607
		c0,25.55,20.706,46.257,46.254,46.257H458.43c25.55,0,46.257-20.707,46.257-46.257V135.696
		C504.687,110.149,483.979,89.44,458.43,89.44z M374.347,347.422c0,19.407-15.747,35.143-35.154,35.143H72.748
		c-19.421,0-35.143-15.735-35.143-35.143V164.591c0-19.419,15.722-35.156,35.143-35.156h266.444
		c19.407,0,35.154,15.736,35.154,35.156V347.422z M445.332,250.239c-11.726,0-21.213-9.499-21.213-21.213
		s9.487-21.213,21.213-21.213c11.716,0,21.214,9.499,21.214,21.213S457.048,250.239,445.332,250.239z M445.332,180.025
		c-11.726,0-21.213-9.499-21.213-21.225c0-11.716,9.487-21.215,21.213-21.215c11.716,0,21.214,9.499,21.214,21.215
		C466.546,170.526,457.048,180.025,445.332,180.025z"/></svg>