<svg xmlns="http://www.w3.org/2000/svg" enable-background="new 0 0 422.738 422.737" viewBox="0 0 422.738 422.737"><path fill="#333" d="M211.369,0C94.819,0,0,94.819,0,211.368c0,116.55,94.819,211.369,211.369,211.369
		c116.549,0,211.37-94.819,211.37-211.369C422.738,94.819,327.918,0,211.369,0z M211.369,403.355
		c-105.862,0-191.986-86.125-191.986-191.987c0-105.861,86.125-191.986,191.986-191.986s191.987,86.125,191.987,191.986
		C403.355,317.23,317.23,403.355,211.369,403.355z"/><path fill="#333" fill-rule="evenodd" d="M105.799,186.528c-13.767,0-24.926,11.159-24.926,24.926
			c0,13.761,11.159,24.926,24.926,24.926s24.926-11.165,24.926-24.926C130.725,197.688,119.566,186.528,105.799,186.528z
			 M211.041,186.528c-13.767,0-24.926,11.159-24.926,24.926c0,13.761,11.159,24.926,24.926,24.926
			c13.766,0,24.926-11.165,24.926-24.926C235.967,197.688,224.807,186.528,211.041,186.528z M316.281,186.528
			c-13.766,0-24.926,11.159-24.926,24.926c0,13.761,11.16,24.926,24.926,24.926c13.768,0,24.926-11.165,24.926-24.926
			C341.207,197.688,330.049,186.528,316.281,186.528z" clip-rule="evenodd"/></svg>