<svg xmlns="http://www.w3.org/2000/svg" enable-background="new 0 0 500 500" viewBox="0 0 500 500"><path fill="#333" d="M77,15v20h21v445h129v-88.141c0-3.761,2.408-6.859,6.17-6.859h47.181c3.761,0,6.649,3.098,6.649,6.859V480
	h129V35h21V15H77z M189,337h-50v-9h9v-49h32v49h9V337z M189,233h-50v-9h9v-49h32v49h9V233z M189,128h-50v-9h9V70h32v49h9V128z
	 M282,337h-50v-9h9v-49h32v49h9V337z M282,233h-50v-9h9v-49h32v49h9V233z M282,128h-50v-9h9V70h32v49h9V128z M375,337h-50v-9h9v-49
	h32v49h9V337z M375,233h-50v-9h9v-49h32v49h9V233z M375,128h-50v-9h9V70h32v49h9V128z"/></svg>