<svg xmlns="http://www.w3.org/2000/svg" enable-background="new 0 0 350.939 368.799" viewBox="0 0 350.939 368.799"><path fill="#333" d="M293.404,253.781c-17.397,0-32.949,7.75-43.529,19.945L112.926,199.98
		c1.397-4.965,2.197-10.162,2.197-15.579c0-5.413-0.8-10.619-2.197-15.57l136.949-73.755c10.58,12.191,26.132,19.954,43.529,19.954
		c31.738,0,57.535-25.815,57.535-57.443C350.939,25.828,325.143,0,293.404,0c-31.772,0-57.57,25.829-57.57,57.588
		c0,5.404,0.791,10.61,2.206,15.57l-137.028,73.637c-10.562-12.122-26.096-19.805-43.468-19.805C25.807,126.989,0,152.611,0,184.401
		c0,31.799,25.807,57.412,57.544,57.412c17.372,0,32.906-7.68,43.477-19.805l137.02,73.649c-1.415,4.956-2.206,10.157-2.206,15.553
		c0,31.772,25.798,57.588,57.57,57.588c31.738,0,57.535-25.815,57.535-57.588C350.939,279.579,325.143,253.781,293.404,253.781z"/></svg>