<svg xmlns="http://www.w3.org/2000/svg" enable-background="new 0 0 512 512" viewBox="0 0 512 512"><path fill="#333" d="M45.008,243.016l57.006,49.694c4.609,2.657,12.104,2.657,16.72,0
		c4.605-2.657,9.266-7.577,9.266-12.902V253.14l132.916-23.512L128,206.115v-25.688c0-5.325-4.661-10.245-9.266-12.902
		c-4.615-2.668-11.761-2.668-16.371,0L45.181,217.21c-4.612,2.657-7.536,7.586-7.536,12.903
		C37.645,235.44,40.396,240.358,45.008,243.016z"/><path fill="#333" d="M158.288,168.064l36.073,14.26V41.485h194.098L302.541,88.05c0,0-11.808,5.249-14.432,9.183
		c-2.622,3.938-2.622,8.524-2.622,26.894v262.339h-91.126V273.172l-36.073,14.26V404.83c0,0,1.314,17.048,22.957,17.048h104.243
		v64.932c0,0,1.313,27.543,24.923,18.36l150.192-83.292c0,0,13.769-3.933,13.769-22.955V24.434c0,0,0-19.017-23.608-19.017H185.836
		c0,0-27.548-5.25-27.548,19.676V168.064z"/></svg>