<svg xmlns="http://www.w3.org/2000/svg" enable-background="new 0 0 500 500" viewBox="0 0 500 500"><path fill="#333" d="M121 91H71c-16.568 0-28 9.432-28 26v285c0 16.568 11.432 26 28 26h50c16.568 0 28-9.432 28-26V117C149 100.432 137.568 91 121 91zM425 91H205c-16.568 0-28 9.432-28 26v285c0 16.568 11.432 26 28 26h220c16.568 0 28-9.432 28-26V117C453 100.432 441.568 91 425 91zM264 381h-32v-32h32V381zM264 322h-32v-32h32V322zM264 263h-32v-32h32V263zM330 381h-32v-32h32V381zM330 322h-32v-32h32V322zM330 263h-32v-32h32V263zM397 381h-32v-32h32V381zM397 322h-32v-32h32V322zM397 263h-32v-32h32V263zM397 194H232v-55h165V194z"/></svg>