<svg xmlns="http://www.w3.org/2000/svg" enable-background="new 0 0 500 500" viewBox="0 0 500 500"><path fill="#333" d="M206.969,395.37c-34.127-17.114-78.581-26.257-118.403-26.257c-25.448,0-65.566,3.475-65.566,3.475V458
		h238.049c0.081-1,0.137-1.616,0.137-2.572C261.185,434.448,241.432,412.654,206.969,395.37z"/><path fill="#333" d="M266.423,342.58c-56.783-28.477-130.472-45.44-196.695-45.44c-16.337,0-31.728,1.098-46.728,3.168v52.679
		c0,0,40.95-1.918,65.617-1.918c42.509,0,89.946,9.936,126.474,28.255c41.417,20.77,64.227,47.604,64.227,76.104
		c0,0.959-0.03,1.572-0.082,2.572h78.247c0.753-3,1.154-7.653,1.154-11.632c0-18.711-8.348-37.28-24.811-55.488
		C318.052,373.436,294.745,356.784,266.423,342.58z"/><path fill="#333" d="M54.652 238.527c-10.819 0-20.652.493-31.652 1.146v42.311c15-1.938 30.478-3.076 46.728-3.076 141.866 0 307.028 73.066 307.028 167.461 0 4.017-.306 8.632-.889 11.632h68.827c.5-3 .764-7.626.764-11.631C445.458 331.498 235.324 238.527 54.652 238.527zM477 406.17V296.967c-31 .072-61.591 3.57-92.731 10.219C443.129 341.32 470 394.709 477 406.17zM466.473 238.677c-55.861 0-114.638 8.905-169.017 24.599 22.808 9.111 44.567 19.331 64.386 30.499C400.117 284.068 439 278.934 477 278.849v-40.058C474 238.723 469.938 238.677 466.473 238.677zM227 244.866v8.216c1.336.393 2.669.79 4 1.192v-9.409c6-.942 10.142-5.914 10.142-11.909 0-6.667-5.503-52.082-12.247-52.082-6.743 0-12.166 45.415-12.166 52.082C216.729 238.954 221 243.929 227 244.866zM188 231.479v11.466c1.669.378 3.336.764 5 1.155v-12.623c8-1.228 13.411-7.712 13.411-15.531 0-8.695-7.085-67.923-15.88-67.923-8.794 0-15.897 59.228-15.897 67.923C174.635 223.77 180 230.258 188 231.479zM77 215.601v12.393c1.665.068 3.332.145 5 .228v-12.624c9-1.387 15.334-8.71 15.334-17.541 0-9.82-7.908-76.71-17.84-76.71-9.932 0-17.771 66.89-17.771 76.71C61.723 206.894 68 214.221 77 215.601zM411 224.479v8.997c1.668-.164 3.334-.32 5-.47v-8.53c8-1.228 13.411-7.712 13.411-15.531 0-8.695-7.085-67.923-15.88-67.923-8.794 0-15.897 59.228-15.897 67.923C397.635 216.77 403 223.258 411 224.479z"/></svg>